0
SECTION
2
HEADER
9
$ANGBASE
50
0.0
9
$ANGDIR
70
0
0
ENDSEC
0
SECTION
2
TABLES
0
TABLE
2
LTYPE
70
1
0
LTYPE
2
CONTINUOUS
70
0
3
Solid line
72
65
73
0
40
0.0
0
ENDTAB
0
TABLE
2
LAYER
70
24
0
LAYER
2
BLACK
70
0
62
1
6
CONTINUOUS
0
LAYER
2
BLUE
70
0
62
2
6
CONTINUOUS
0
LAYER
2
GREEN
70
0
62
3
6
CONTINUOUS
0
LAYER
2
CYAN
70
0
62
4
6
CONTINUOUS
0
LAYER
2
RED
70
0
62
5
6
CONTINUOUS
0
LAYER
2
MAGENTA
70
0
62
6
6
CONTINUOUS
0
LAYER
2
BROWN
70
0
62
7
6
CONTINUOUS
0
LAYER
2
GRAY
70
0
62
8
6
CONTINUOUS
0
LAYER
2
DARKGRAY
70
0
62
9
6
CONTINUOUS
0
LAYER
2
LIGHTBLUE
70
0
62
10
6
CONTINUOUS
0
LAYER
2
LIGHTGREEN
70
0
62
11
6
CONTINUOUS
0
LAYER
2
LIGHTCYAN
70
0
62
12
6
CONTINUOUS
0
LAYER
2
LIGHTRED
70
0
62
13
6
CONTINUOUS
0
LAYER
2
LIGHTMAGENTA
70
0
62
14
6
CONTINUOUS
0
LAYER
2
YELLOW
70
0
62
15
6
CONTINUOUS
0
LAYER
2
WHITE
70
0
62
16
6
CONTINUOUS
0
LAYER
2
DARKDARKGRAY
70
0
62
17
6
CONTINUOUS
0
LAYER
2
DARKBLUE
70
0
62
18
6
CONTINUOUS
0
LAYER
2
DARKGREEN
70
0
62
19
6
CONTINUOUS
0
LAYER
2
DARKCYAN
70
0
62
20
6
CONTINUOUS
0
LAYER
2
DARKRED
70
0
62
21
6
CONTINUOUS
0
LAYER
2
DARKMAGENTA
70
0
62
22
6
CONTINUOUS
0
LAYER
2
DARKBROWN
70
0
62
23
6
CONTINUOUS
0
LAYER
2
LIGHTYELLOW
70
0
62
24
6
CONTINUOUS
0
ENDTAB
0
ENDSEC
0
SECTION
2
ENTITIES
0
LINE
8
BLACK
10
54750.0
20
68095.0
11
73000.0
21
68095.0
0
LINE
8
BLACK
10
54750.0
20
68245.0
11
73000.0
21
68245.0
0
ARC
8
BLACK
10
73000.0
20
68170.0
40
75.0
50
270.0
51
450.0
0
ARC
8
BLACK
10
54750.0
20
68170.0
40
75.0
50
90.0
51
270.0
0
LINE
8
BLACK
10
73075.0
20
53670.0
11
73075.0
21
68170.0
0
LINE
8
BLACK
10
72925.0
20
53670.0
11
72925.0
21
68170.0
0
ARC
8
BLACK
10
73000.0
20
68170.0
40
75.0
50
360.0
51
540.0
0
ARC
8
BLACK
10
73000.0
20
53670.0
40
75.0
50
180.0
51
360.0
0
LINE
8
BLACK
10
54750.0
20
53595.0
11
73000.0
21
53595.0
0
LINE
8
BLACK
10
54750.0
20
53745.0
11
73000.0
21
53745.0
0
ARC
8
BLACK
10
73000.0
20
53670.0
40
75.0
50
270.0
51
450.0
0
ARC
8
BLACK
10
54750.0
20
53670.0
40
75.0
50
90.0
51
270.0
0
LINE
8
BLACK
10
54825.0
20
53670.0
11
54825.0
21
68170.0
0
LINE
8
BLACK
10
54675.0
20
53670.0
11
54675.0
21
68170.0
0
ARC
8
BLACK
10
54750.0
20
68170.0
40
75.0
50
360.0
51
540.0
0
ARC
8
BLACK
10
54750.0
20
53670.0
40
75.0
50
180.0
51
360.0
0
LINE
8
BLACK
10
64000.0
20
65360.0
11
66000.0
21
65360.0
0
LINE
8
BLACK
10
64000.0
20
65480.0
11
66000.0
21
65480.0
0
ARC
8
BLACK
10
66000.0
20
65420.0
40
60.0
50
270.0
51
450.0
0
ARC
8
BLACK
10
64000.0
20
65420.0
40
60.0
50
90.0
51
270.0
0
LINE
8
BLACK
10
64000.0
20
64360.0
11
66000.0
21
64360.0
0
LINE
8
BLACK
10
64000.0
20
64480.0
11
66000.0
21
64480.0
0
ARC
8
BLACK
10
66000.0
20
64420.0
40
60.0
50
270.0
51
450.0
0
ARC
8
BLACK
10
64000.0
20
64420.0
40
60.0
50
90.0
51
270.0
0
LINE
8
BLACK
10
64000.0
20
63360.0
11
66000.0
21
63360.0
0
LINE
8
BLACK
10
64000.0
20
63480.0
11
66000.0
21
63480.0
0
ARC
8
BLACK
10
66000.0
20
63420.0
40
60.0
50
270.0
51
450.0
0
ARC
8
BLACK
10
64000.0
20
63420.0
40
60.0
50
90.0
51
270.0
0
LINE
8
BLACK
10
66000.0
20
62360.0
11
72000.0
21
62360.0
0
LINE
8
BLACK
10
66000.0
20
62480.0
11
72000.0
21
62480.0
0
ARC
8
BLACK
10
72000.0
20
62420.0
40
60.0
50
270.0
51
450.0
0
ARC
8
BLACK
10
66000.0
20
62420.0
40
60.0
50
90.0
51
270.0
0
LINE
8
BLACK
10
72060.0
20
62420.0
11
72060.0
21
66420.0
0
LINE
8
BLACK
10
71940.0
20
62420.0
11
71940.0
21
66420.0
0
ARC
8
BLACK
10
72000.0
20
66420.0
40
60.0
50
360.0
51
540.0
0
ARC
8
BLACK
10
72000.0
20
62420.0
40
60.0
50
180.0
51
360.0
0
LINE
8
BLACK
10
66000.0
20
66360.0
11
72000.0
21
66360.0
0
LINE
8
BLACK
10
66000.0
20
66480.0
11
72000.0
21
66480.0
0
ARC
8
BLACK
10
72000.0
20
66420.0
40
60.0
50
270.0
51
450.0
0
ARC
8
BLACK
10
66000.0
20
66420.0
40
60.0
50
90.0
51
270.0
0
LINE
8
BLACK
10
66060.0
20
62420.0
11
66060.0
21
66420.0
0
LINE
8
BLACK
10
65940.0
20
62420.0
11
65940.0
21
66420.0
0
ARC
8
BLACK
10
66000.0
20
66420.0
40
60.0
50
360.0
51
540.0
0
ARC
8
BLACK
10
66000.0
20
62420.0
40
60.0
50
180.0
51
360.0
0
LINE
8
BLACK
10
69060.0
20
62920.0
11
69060.0
21
66420.0
0
LINE
8
BLACK
10
68940.0
20
62920.0
11
68940.0
21
66420.0
0
ARC
8
BLACK
10
69000.0
20
66420.0
40
60.0
50
360.0
51
540.0
0
ARC
8
BLACK
10
69000.0
20
62920.0
40
60.0
50
180.0
51
360.0
0
LINE
8
BLACK
10
69060.0
20
62420.0
11
69060.0
21
62920.0
0
LINE
8
BLACK
10
68940.0
20
62420.0
11
68940.0
21
62920.0
0
ARC
8
BLACK
10
69000.0
20
62920.0
40
60.0
50
360.0
51
540.0
0
ARC
8
BLACK
10
69000.0
20
62420.0
40
60.0
50
180.0
51
360.0
0
LINE
8
BLACK
10
64000.0
20
58110.0
11
66000.0
21
58110.0
0
LINE
8
BLACK
10
64000.0
20
58230.0
11
66000.0
21
58230.0
0
ARC
8
BLACK
10
66000.0
20
58170.0
40
60.0
50
270.0
51
450.0
0
ARC
8
BLACK
10
64000.0
20
58170.0
40
60.0
50
90.0
51
270.0
0
LINE
8
BLACK
10
64000.0
20
57110.0
11
66000.0
21
57110.0
0
LINE
8
BLACK
10
64000.0
20
57230.0
11
66000.0
21
57230.0
0
ARC
8
BLACK
10
66000.0
20
57170.0
40
60.0
50
270.0
51
450.0
0
ARC
8
BLACK
10
64000.0
20
57170.0
40
60.0
50
90.0
51
270.0
0
LINE
8
BLACK
10
64000.0
20
56110.0
11
66000.0
21
56110.0
0
LINE
8
BLACK
10
64000.0
20
56230.0
11
66000.0
21
56230.0
0
ARC
8
BLACK
10
66000.0
20
56170.0
40
60.0
50
270.0
51
450.0
0
ARC
8
BLACK
10
64000.0
20
56170.0
40
60.0
50
90.0
51
270.0
0
LINE
8
BLACK
10
66000.0
20
55110.0
11
72000.0
21
55110.0
0
LINE
8
BLACK
10
66000.0
20
55230.0
11
72000.0
21
55230.0
0
ARC
8
BLACK
10
72000.0
20
55170.0
40
60.0
50
270.0
51
450.0
0
ARC
8
BLACK
10
66000.0
20
55170.0
40
60.0
50
90.0
51
270.0
0
LINE
8
BLACK
10
72060.0
20
55170.0
11
72060.0
21
59170.0
0
LINE
8
BLACK
10
71940.0
20
55170.0
11
71940.0
21
59170.0
0
ARC
8
BLACK
10
72000.0
20
59170.0
40
60.0
50
360.0
51
540.0
0
ARC
8
BLACK
10
72000.0
20
55170.0
40
60.0
50
180.0
51
360.0
0
LINE
8
BLACK
10
66000.0
20
59110.0
11
72000.0
21
59110.0
0
LINE
8
BLACK
10
66000.0
20
59230.0
11
72000.0
21
59230.0
0
ARC
8
BLACK
10
72000.0
20
59170.0
40
60.0
50
270.0
51
450.0
0
ARC
8
BLACK
10
66000.0
20
59170.0
40
60.0
50
90.0
51
270.0
0
LINE
8
BLACK
10
66060.0
20
55170.0
11
66060.0
21
59170.0
0
LINE
8
BLACK
10
65940.0
20
55170.0
11
65940.0
21
59170.0
0
ARC
8
BLACK
10
66000.0
20
59170.0
40
60.0
50
360.0
51
540.0
0
ARC
8
BLACK
10
66000.0
20
55170.0
40
60.0
50
180.0
51
360.0
0
LINE
8
BLACK
10
69060.0
20
55670.0
11
69060.0
21
59170.0
0
LINE
8
BLACK
10
68940.0
20
55670.0
11
68940.0
21
59170.0
0
ARC
8
BLACK
10
69000.0
20
59170.0
40
60.0
50
360.0
51
540.0
0
ARC
8
BLACK
10
69000.0
20
55670.0
40
60.0
50
180.0
51
360.0
0
LINE
8
BLACK
10
69060.0
20
55170.0
11
69060.0
21
55670.0
0
LINE
8
BLACK
10
68940.0
20
55170.0
11
68940.0
21
55670.0
0
ARC
8
BLACK
10
69000.0
20
55670.0
40
60.0
50
360.0
51
540.0
0
ARC
8
BLACK
10
69000.0
20
55170.0
40
60.0
50
180.0
51
360.0
0
LINE
8
BLACK
10
57560.0
20
66520.0
11
57560.0
21
66920.0
0
LINE
8
BLACK
10
57440.0
20
66520.0
11
57440.0
21
66920.0
0
ARC
8
BLACK
10
57500.0
20
66920.0
40
60.0
50
360.0
51
540.0
0
ARC
8
BLACK
10
57500.0
20
66520.0
40
60.0
50
180.0
51
360.0
0
LINE
8
BLACK
10
57560.0
20
61920.0
11
57560.0
21
62320.0
0
LINE
8
BLACK
10
57440.0
20
61920.0
11
57440.0
21
62320.0
0
ARC
8
BLACK
10
57500.0
20
62320.0
40
60.0
50
360.0
51
540.0
0
ARC
8
BLACK
10
57500.0
20
61920.0
40
60.0
50
180.0
51
360.0
0
LINE
8
BLACK
10
57000.0
20
62260.0
11
58000.0
21
62260.0
0
LINE
8
BLACK
10
57000.0
20
62380.0
11
58000.0
21
62380.0
0
ARC
8
BLACK
10
58000.0
20
62320.0
40
60.0
50
270.0
51
450.0
0
ARC
8
BLACK
10
57000.0
20
62320.0
40
60.0
50
90.0
51
270.0
0
LINE
8
BLACK
10
57060.0
20
62320.0
11
57060.0
21
66520.0
0
LINE
8
BLACK
10
56940.0
20
62320.0
11
56940.0
21
66520.0
0
ARC
8
BLACK
10
57000.0
20
66520.0
40
60.0
50
360.0
51
540.0
0
ARC
8
BLACK
10
57000.0
20
62320.0
40
60.0
50
180.0
51
360.0
0
LINE
8
BLACK
10
57000.0
20
66460.0
11
58000.0
21
66460.0
0
LINE
8
BLACK
10
57000.0
20
66580.0
11
58000.0
21
66580.0
0
ARC
8
BLACK
10
58000.0
20
66520.0
40
60.0
50
270.0
51
450.0
0
ARC
8
BLACK
10
57000.0
20
66520.0
40
60.0
50
90.0
51
270.0
0
LINE
8
BLACK
10
58060.0
20
62320.0
11
58060.0
21
66520.0
0
LINE
8
BLACK
10
57940.0
20
62320.0
11
57940.0
21
66520.0
0
ARC
8
BLACK
10
58000.0
20
66520.0
40
60.0
50
360.0
51
540.0
0
ARC
8
BLACK
10
58000.0
20
62320.0
40
60.0
50
180.0
51
360.0
0
LINE
8
BLACK
10
57758.0
20
66477.0
11
57957.0
21
66278.0
0
LINE
8
BLACK
10
57843.0
20
66562.0
11
58042.0
21
66363.0
0
ARC
8
BLACK
10
58000.0
20
66320.0
40
60.0
50
225.0
51
405.0
0
ARC
8
BLACK
10
57800.0
20
66520.0
40
60.0
50
45.0
51
225.0
0
LINE
8
BLACK
10
57560.0
20
54920.0
11
57560.0
21
55320.0
0
LINE
8
BLACK
10
57440.0
20
54920.0
11
57440.0
21
55320.0
0
ARC
8
BLACK
10
57500.0
20
55320.0
40
60.0
50
360.0
51
540.0
0
ARC
8
BLACK
10
57500.0
20
54920.0
40
60.0
50
180.0
51
360.0
0
LINE
8
BLACK
10
57560.0
20
59520.0
11
57560.0
21
59920.0
0
LINE
8
BLACK
10
57440.0
20
59520.0
11
57440.0
21
59920.0
0
ARC
8
BLACK
10
57500.0
20
59920.0
40
60.0
50
360.0
51
540.0
0
ARC
8
BLACK
10
57500.0
20
59520.0
40
60.0
50
180.0
51
360.0
0
LINE
8
BLACK
10
57000.0
20
59460.0
11
58000.0
21
59460.0
0
LINE
8
BLACK
10
57000.0
20
59580.0
11
58000.0
21
59580.0
0
ARC
8
BLACK
10
58000.0
20
59520.0
40
60.0
50
270.0
51
450.0
0
ARC
8
BLACK
10
57000.0
20
59520.0
40
60.0
50
90.0
51
270.0
0
LINE
8
BLACK
10
58060.0
20
55320.0
11
58060.0
21
59520.0
0
LINE
8
BLACK
10
57940.0
20
55320.0
11
57940.0
21
59520.0
0
ARC
8
BLACK
10
58000.0
20
59520.0
40
60.0
50
360.0
51
540.0
0
ARC
8
BLACK
10
58000.0
20
55320.0
40
60.0
50
180.0
51
360.0
0
LINE
8
BLACK
10
57000.0
20
55260.0
11
58000.0
21
55260.0
0
LINE
8
BLACK
10
57000.0
20
55380.0
11
58000.0
21
55380.0
0
ARC
8
BLACK
10
58000.0
20
55320.0
40
60.0
50
270.0
51
450.0
0
ARC
8
BLACK
10
57000.0
20
55320.0
40
60.0
50
90.0
51
270.0
0
LINE
8
BLACK
10
57060.0
20
55320.0
11
57060.0
21
59520.0
0
LINE
8
BLACK
10
56940.0
20
55320.0
11
56940.0
21
59520.0
0
ARC
8
BLACK
10
57000.0
20
59520.0
40
60.0
50
360.0
51
540.0
0
ARC
8
BLACK
10
57000.0
20
55320.0
40
60.0
50
180.0
51
360.0
0
LINE
8
BLACK
10
57242.0
20
55363.0
11
57043.0
21
55562.0
0
LINE
8
BLACK
10
57157.0
20
55278.0
11
56958.0
21
55477.0
0
ARC
8
BLACK
10
57000.0
20
55520.0
40
60.0
50
405.0
51
585.0
0
ARC
8
BLACK
10
57200.0
20
55320.0
40
60.0
50
225.0
51
405.0
0
LINE
8
BLACK
10
65600.0
20
61360.0
11
66000.0
21
61360.0
0
LINE
8
BLACK
10
65600.0
20
61480.0
11
66000.0
21
61480.0
0
ARC
8
BLACK
10
66000.0
20
61420.0
40
60.0
50
270.0
51
450.0
0
ARC
8
BLACK
10
65600.0
20
61420.0
40
60.0
50
90.0
51
270.0
0
LINE
8
BLACK
10
61000.0
20
61360.0
11
61400.0
21
61360.0
0
LINE
8
BLACK
10
61000.0
20
61480.0
11
61400.0
21
61480.0
0
ARC
8
BLACK
10
61400.0
20
61420.0
40
60.0
50
270.0
51
450.0
0
ARC
8
BLACK
10
61000.0
20
61420.0
40
60.0
50
90.0
51
270.0
0
LINE
8
BLACK
10
61460.0
20
60920.0
11
61460.0
21
61920.0
0
LINE
8
BLACK
10
61340.0
20
60920.0
11
61340.0
21
61920.0
0
ARC
8
BLACK
10
61400.0
20
61920.0
40
60.0
50
360.0
51
540.0
0
ARC
8
BLACK
10
61400.0
20
60920.0
40
60.0
50
180.0
51
360.0
0
LINE
8
BLACK
10
61400.0
20
61860.0
11
65600.0
21
61860.0
0
LINE
8
BLACK
10
61400.0
20
61980.0
11
65600.0
21
61980.0
0
ARC
8
BLACK
10
65600.0
20
61920.0
40
60.0
50
270.0
51
450.0
0
ARC
8
BLACK
10
61400.0
20
61920.0
40
60.0
50
90.0
51
270.0
0
LINE
8
BLACK
10
65660.0
20
60920.0
11
65660.0
21
61920.0
0
LINE
8
BLACK
10
65540.0
20
60920.0
11
65540.0
21
61920.0
0
ARC
8
BLACK
10
65600.0
20
61920.0
40
60.0
50
360.0
51
540.0
0
ARC
8
BLACK
10
65600.0
20
60920.0
40
60.0
50
180.0
51
360.0
0
LINE
8
BLACK
10
61400.0
20
60860.0
11
65600.0
21
60860.0
0
LINE
8
BLACK
10
61400.0
20
60980.0
11
65600.0
21
60980.0
0
ARC
8
BLACK
10
65600.0
20
60920.0
40
60.0
50
270.0
51
450.0
0
ARC
8
BLACK
10
61400.0
20
60920.0
40
60.0
50
90.0
51
270.0
0
LINE
8
BLACK
10
65557.0
20
61162.0
11
65358.0
21
60963.0
0
LINE
8
BLACK
10
65642.0
20
61077.0
11
65443.0
21
60878.0
0
ARC
8
BLACK
10
65400.0
20
60920.0
40
60.0
50
135.0
51
315.0
0
ARC
8
BLACK
10
65600.0
20
61120.0
40
60.0
50
-45.0
51
135.0
0
LINE
8
BLACK
10
65600.0
20
60110.0
11
66000.0
21
60110.0
0
LINE
8
BLACK
10
65600.0
20
60230.0
11
66000.0
21
60230.0
0
ARC
8
BLACK
10
66000.0
20
60170.0
40
60.0
50
270.0
51
450.0
0
ARC
8
BLACK
10
65600.0
20
60170.0
40
60.0
50
90.0
51
270.0
0
LINE
8
BLACK
10
61000.0
20
60110.0
11
61400.0
21
60110.0
0
LINE
8
BLACK
10
61000.0
20
60230.0
11
61400.0
21
60230.0
0
ARC
8
BLACK
10
61400.0
20
60170.0
40
60.0
50
270.0
51
450.0
0
ARC
8
BLACK
10
61000.0
20
60170.0
40
60.0
50
90.0
51
270.0
0
LINE
8
BLACK
10
61460.0
20
59670.0
11
61460.0
21
60670.0
0
LINE
8
BLACK
10
61340.0
20
59670.0
11
61340.0
21
60670.0
0
ARC
8
BLACK
10
61400.0
20
60670.0
40
60.0
50
360.0
51
540.0
0
ARC
8
BLACK
10
61400.0
20
59670.0
40
60.0
50
180.0
51
360.0
0
LINE
8
BLACK
10
61400.0
20
60610.0
11
65600.0
21
60610.0
0
LINE
8
BLACK
10
61400.0
20
60730.0
11
65600.0
21
60730.0
0
ARC
8
BLACK
10
65600.0
20
60670.0
40
60.0
50
270.0
51
450.0
0
ARC
8
BLACK
10
61400.0
20
60670.0
40
60.0
50
90.0
51
270.0
0
LINE
8
BLACK
10
65660.0
20
59670.0
11
65660.0
21
60670.0
0
LINE
8
BLACK
10
65540.0
20
59670.0
11
65540.0
21
60670.0
0
ARC
8
BLACK
10
65600.0
20
60670.0
40
60.0
50
360.0
51
540.0
0
ARC
8
BLACK
10
65600.0
20
59670.0
40
60.0
50
180.0
51
360.0
0
LINE
8
BLACK
10
61400.0
20
59610.0
11
65600.0
21
59610.0
0
LINE
8
BLACK
10
61400.0
20
59730.0
11
65600.0
21
59730.0
0
ARC
8
BLACK
10
65600.0
20
59670.0
40
60.0
50
270.0
51
450.0
0
ARC
8
BLACK
10
61400.0
20
59670.0
40
60.0
50
90.0
51
270.0
0
LINE
8
BLACK
10
65557.0
20
59912.0
11
65358.0
21
59713.0
0
LINE
8
BLACK
10
65642.0
20
59827.0
11
65443.0
21
59628.0
0
ARC
8
BLACK
10
65400.0
20
59670.0
40
60.0
50
135.0
51
315.0
0
ARC
8
BLACK
10
65600.0
20
59870.0
40
60.0
50
-45.0
51
135.0
0
LINE
8
BLACK
10
55500.0
20
62390.0
11
56500.0
21
62390.0
0
LINE
8
BLACK
10
55500.0
20
62450.0
11
56500.0
21
62450.0
0
ARC
8
BLACK
10
56500.0
20
62420.0
40
30.0
50
270.0
51
450.0
0
ARC
8
BLACK
10
55500.0
20
62420.0
40
30.0
50
90.0
51
270.0
0
LINE
8
BLACK
10
56530.0
20
59420.0
11
56530.0
21
62420.0
0
LINE
8
BLACK
10
56470.0
20
59420.0
11
56470.0
21
62420.0
0
ARC
8
BLACK
10
56500.0
20
62420.0
40
30.0
50
360.0
51
540.0
0
ARC
8
BLACK
10
56500.0
20
59420.0
40
30.0
50
180.0
51
360.0
0
LINE
8
BLACK
10
55500.0
20
59390.0
11
56500.0
21
59390.0
0
LINE
8
BLACK
10
55500.0
20
59450.0
11
56500.0
21
59450.0
0
ARC
8
BLACK
10
56500.0
20
59420.0
40
30.0
50
270.0
51
450.0
0
ARC
8
BLACK
10
55500.0
20
59420.0
40
30.0
50
90.0
51
270.0
0
LINE
8
BLACK
10
55530.0
20
59420.0
11
55530.0
21
62420.0
0
LINE
8
BLACK
10
55470.0
20
59420.0
11
55470.0
21
62420.0
0
ARC
8
BLACK
10
55500.0
20
62420.0
40
30.0
50
360.0
51
540.0
0
ARC
8
BLACK
10
55500.0
20
59420.0
40
30.0
50
180.0
51
360.0
0
LINE
8
BLACK
10
55500.0
20
61390.0
11
56500.0
21
61390.0
0
LINE
8
BLACK
10
55500.0
20
61450.0
11
56500.0
21
61450.0
0
ARC
8
BLACK
10
56500.0
20
61420.0
40
30.0
50
270.0
51
450.0
0
ARC
8
BLACK
10
55500.0
20
61420.0
40
30.0
50
90.0
51
270.0
0
LINE
8
BLACK
10
67000.0
20
59640.0
11
68000.0
21
59640.0
0
LINE
8
BLACK
10
67000.0
20
59700.0
11
68000.0
21
59700.0
0
ARC
8
BLACK
10
68000.0
20
59670.0
40
30.0
50
270.0
51
450.0
0
ARC
8
BLACK
10
67000.0
20
59670.0
40
30.0
50
90.0
51
270.0
0
LINE
8
BLACK
10
67030.0
20
59670.0
11
67030.0
21
61670.0
0
LINE
8
BLACK
10
66970.0
20
59670.0
11
66970.0
21
61670.0
0
ARC
8
BLACK
10
67000.0
20
61670.0
40
30.0
50
360.0
51
540.0
0
ARC
8
BLACK
10
67000.0
20
59670.0
40
30.0
50
180.0
51
360.0
0
LINE
8
BLACK
10
67000.0
20
61640.0
11
68000.0
21
61640.0
0
LINE
8
BLACK
10
67000.0
20
61700.0
11
68000.0
21
61700.0
0
ARC
8
BLACK
10
68000.0
20
61670.0
40
30.0
50
270.0
51
450.0
0
ARC
8
BLACK
10
67000.0
20
61670.0
40
30.0
50
90.0
51
270.0
0
LINE
8
BLACK
10
68030.0
20
59670.0
11
68030.0
21
61670.0
0
LINE
8
BLACK
10
67970.0
20
59670.0
11
67970.0
21
61670.0
0
ARC
8
BLACK
10
68000.0
20
61670.0
40
30.0
50
360.0
51
540.0
0
ARC
8
BLACK
10
68000.0
20
59670.0
40
30.0
50
180.0
51
360.0
0
LINE
8
BLACK
10
62075.0
20
55670.0
11
62075.0
21
59170.0
0
LINE
8
BLACK
10
61925.0
20
55670.0
11
61925.0
21
59170.0
0
ARC
8
BLACK
10
62000.0
20
59170.0
40
75.0
50
360.0
51
540.0
0
ARC
8
BLACK
10
62000.0
20
55670.0
40
75.0
50
180.0
51
360.0
0
LINE
8
BLACK
10
60000.0
20
55595.0
11
62000.0
21
55595.0
0
LINE
8
BLACK
10
60000.0
20
55745.0
11
62000.0
21
55745.0
0
ARC
8
BLACK
10
62000.0
20
55670.0
40
75.0
50
270.0
51
450.0
0
ARC
8
BLACK
10
60000.0
20
55670.0
40
75.0
50
90.0
51
270.0
0
LINE
8
BLACK
10
60075.0
20
55670.0
11
60075.0
21
59170.0
0
LINE
8
BLACK
10
59925.0
20
55670.0
11
59925.0
21
59170.0
0
ARC
8
BLACK
10
60000.0
20
59170.0
40
75.0
50
360.0
51
540.0
0
ARC
8
BLACK
10
60000.0
20
55670.0
40
75.0
50
180.0
51
360.0
0
LINE
8
BLACK
10
60000.0
20
59095.0
11
62000.0
21
59095.0
0
LINE
8
BLACK
10
60000.0
20
59245.0
11
62000.0
21
59245.0
0
ARC
8
BLACK
10
62000.0
20
59170.0
40
75.0
50
270.0
51
450.0
0
ARC
8
BLACK
10
60000.0
20
59170.0
40
75.0
50
90.0
51
270.0
0
LINE
8
BLACK
10
61325.0
20
58670.0
11
61325.0
21
59170.0
0
LINE
8
BLACK
10
61175.0
20
58670.0
11
61175.0
21
59170.0
0
ARC
8
BLACK
10
61250.0
20
59170.0
40
75.0
50
360.0
51
540.0
0
ARC
8
BLACK
10
61250.0
20
58670.0
40
75.0
50
180.0
51
360.0
0
LINE
8
BLACK
10
60750.0
20
58595.0
11
61250.0
21
58595.0
0
LINE
8
BLACK
10
60750.0
20
58745.0
11
61250.0
21
58745.0
0
ARC
8
BLACK
10
61250.0
20
58670.0
40
75.0
50
270.0
51
450.0
0
ARC
8
BLACK
10
60750.0
20
58670.0
40
75.0
50
90.0
51
270.0
0
LINE
8
BLACK
10
60825.0
20
58670.0
11
60825.0
21
59170.0
0
LINE
8
BLACK
10
60675.0
20
58670.0
11
60675.0
21
59170.0
0
ARC
8
BLACK
10
60750.0
20
59170.0
40
75.0
50
360.0
51
540.0
0
ARC
8
BLACK
10
60750.0
20
58670.0
40
75.0
50
180.0
51
360.0
0
LINE
8
BLACK
10
62075.0
20
62170.0
11
62075.0
21
65670.0
0
LINE
8
BLACK
10
61925.0
20
62170.0
11
61925.0
21
65670.0
0
ARC
8
BLACK
10
62000.0
20
65670.0
40
75.0
50
360.0
51
540.0
0
ARC
8
BLACK
10
62000.0
20
62170.0
40
75.0
50
180.0
51
360.0
0
LINE
8
BLACK
10
60000.0
20
62095.0
11
62000.0
21
62095.0
0
LINE
8
BLACK
10
60000.0
20
62245.0
11
62000.0
21
62245.0
0
ARC
8
BLACK
10
62000.0
20
62170.0
40
75.0
50
270.0
51
450.0
0
ARC
8
BLACK
10
60000.0
20
62170.0
40
75.0
50
90.0
51
270.0
0
LINE
8
BLACK
10
60075.0
20
62170.0
11
60075.0
21
65670.0
0
LINE
8
BLACK
10
59925.0
20
62170.0
11
59925.0
21
65670.0
0
ARC
8
BLACK
10
60000.0
20
65670.0
40
75.0
50
360.0
51
540.0
0
ARC
8
BLACK
10
60000.0
20
62170.0
40
75.0
50
180.0
51
360.0
0
LINE
8
BLACK
10
60000.0
20
65595.0
11
62000.0
21
65595.0
0
LINE
8
BLACK
10
60000.0
20
65745.0
11
62000.0
21
65745.0
0
ARC
8
BLACK
10
62000.0
20
65670.0
40
75.0
50
270.0
51
450.0
0
ARC
8
BLACK
10
60000.0
20
65670.0
40
75.0
50
90.0
51
270.0
0
LINE
8
BLACK
10
61325.0
20
65170.0
11
61325.0
21
65670.0
0
LINE
8
BLACK
10
61175.0
20
65170.0
11
61175.0
21
65670.0
0
ARC
8
BLACK
10
61250.0
20
65670.0
40
75.0
50
360.0
51
540.0
0
ARC
8
BLACK
10
61250.0
20
65170.0
40
75.0
50
180.0
51
360.0
0
LINE
8
BLACK
10
60750.0
20
65095.0
11
61250.0
21
65095.0
0
LINE
8
BLACK
10
60750.0
20
65245.0
11
61250.0
21
65245.0
0
ARC
8
BLACK
10
61250.0
20
65170.0
40
75.0
50
270.0
51
450.0
0
ARC
8
BLACK
10
60750.0
20
65170.0
40
75.0
50
90.0
51
270.0
0
LINE
8
BLACK
10
60825.0
20
65170.0
11
60825.0
21
65670.0
0
LINE
8
BLACK
10
60675.0
20
65170.0
11
60675.0
21
65670.0
0
ARC
8
BLACK
10
60750.0
20
65670.0
40
75.0
50
360.0
51
540.0
0
ARC
8
BLACK
10
60750.0
20
65170.0
40
75.0
50
180.0
51
360.0
0
LINE
8
BLACK
10
66512.0
20
64115.0
11
66836.0
21
64115.0
0
LINE
8
BLACK
10
66836.0
20
64115.0
11
66874.0
21
64134.0
0
LINE
8
BLACK
10
66874.0
20
64134.0
11
66893.0
21
64153.0
0
LINE
8
BLACK
10
66893.0
20
64153.0
11
66912.0
21
64191.0
0
LINE
8
BLACK
10
66912.0
20
64191.0
11
66912.0
21
64268.0
0
LINE
8
BLACK
10
66912.0
20
64268.0
11
66893.0
21
64306.0
0
LINE
8
BLACK
10
66893.0
20
64306.0
11
66874.0
21
64325.0
0
LINE
8
BLACK
10
66874.0
20
64325.0
11
66836.0
21
64344.0
0
LINE
8
BLACK
10
66836.0
20
64344.0
11
66512.0
21
64344.0
0
LINE
8
BLACK
10
66645.0
20
64706.0
11
66912.0
21
64706.0
0
LINE
8
BLACK
10
66493.0
20
64610.0
11
66779.0
21
64515.0
0
LINE
8
BLACK
10
66779.0
20
64515.0
11
66779.0
21
64763.0
0
LINE
8
BLACK
10
66512.0
20
56865.0
11
66836.0
21
56865.0
0
LINE
8
BLACK
10
66836.0
20
56865.0
11
66874.0
21
56884.0
0
LINE
8
BLACK
10
66874.0
20
56884.0
11
66893.0
21
56903.0
0
LINE
8
BLACK
10
66893.0
20
56903.0
11
66912.0
21
56941.0
0
LINE
8
BLACK
10
66912.0
20
56941.0
11
66912.0
21
57018.0
0
LINE
8
BLACK
10
66912.0
20
57018.0
11
66893.0
21
57056.0
0
LINE
8
BLACK
10
66893.0
20
57056.0
11
66874.0
21
57075.0
0
LINE
8
BLACK
10
66874.0
20
57075.0
11
66836.0
21
57094.0
0
LINE
8
BLACK
10
66836.0
20
57094.0
11
66512.0
21
57094.0
0
LINE
8
BLACK
10
66512.0
20
57246.0
11
66512.0
21
57494.0
0
LINE
8
BLACK
10
66512.0
20
57494.0
11
66664.0
21
57360.0
0
LINE
8
BLACK
10
66664.0
20
57360.0
11
66664.0
21
57418.0
0
LINE
8
BLACK
10
66664.0
20
57418.0
11
66683.0
21
57456.0
0
LINE
8
BLACK
10
66683.0
20
57456.0
11
66702.0
21
57475.0
0
LINE
8
BLACK
10
66702.0
20
57475.0
11
66740.0
21
57494.0
0
LINE
8
BLACK
10
66740.0
20
57494.0
11
66836.0
21
57494.0
0
LINE
8
BLACK
10
66836.0
20
57494.0
11
66874.0
21
57475.0
0
LINE
8
BLACK
10
66874.0
20
57475.0
11
66893.0
21
57456.0
0
LINE
8
BLACK
10
66893.0
20
57456.0
11
66912.0
21
57418.0
0
LINE
8
BLACK
10
66912.0
20
57418.0
11
66912.0
21
57303.0
0
LINE
8
BLACK
10
66912.0
20
57303.0
11
66893.0
21
57265.0
0
LINE
8
BLACK
10
66893.0
20
57265.0
11
66874.0
21
57246.0
0
LINE
8
BLACK
10
57723.0
20
64337.0
11
57461.0
21
64170.0
0
LINE
8
BLACK
10
57723.0
20
64051.0
11
57173.0
21
64051.0
0
LINE
8
BLACK
10
57173.0
20
64051.0
11
57173.0
21
64242.0
0
LINE
8
BLACK
10
57173.0
20
64242.0
11
57199.0
21
64289.0
0
LINE
8
BLACK
10
57199.0
20
64289.0
11
57225.0
21
64313.0
0
LINE
8
BLACK
10
57225.0
20
64313.0
11
57277.0
21
64337.0
0
LINE
8
BLACK
10
57277.0
20
64337.0
11
57356.0
21
64337.0
0
LINE
8
BLACK
10
57356.0
20
64337.0
11
57408.0
21
64313.0
0
LINE
8
BLACK
10
57408.0
20
64313.0
11
57435.0
21
64289.0
0
LINE
8
BLACK
10
57435.0
20
64289.0
11
57461.0
21
64242.0
0
LINE
8
BLACK
10
57461.0
20
64242.0
11
57461.0
21
64051.0
0
LINE
8
BLACK
10
57225.0
20
64527.0
11
57199.0
21
64551.0
0
LINE
8
BLACK
10
57199.0
20
64551.0
11
57173.0
21
64599.0
0
LINE
8
BLACK
10
57173.0
20
64599.0
11
57173.0
21
64718.0
0
LINE
8
BLACK
10
57173.0
20
64718.0
11
57199.0
21
64765.0
0
LINE
8
BLACK
10
57199.0
20
64765.0
11
57225.0
21
64789.0
0
LINE
8
BLACK
10
57225.0
20
64789.0
11
57277.0
21
64813.0
0
LINE
8
BLACK
10
57277.0
20
64813.0
11
57330.0
21
64813.0
0
LINE
8
BLACK
10
57330.0
20
64813.0
11
57408.0
21
64789.0
0
LINE
8
BLACK
10
57408.0
20
64789.0
11
57723.0
21
64503.0
0
LINE
8
BLACK
10
57723.0
20
64503.0
11
57723.0
21
64813.0
0
LINE
8
BLACK
10
57723.0
20
57337.0
11
57461.0
21
57170.0
0
LINE
8
BLACK
10
57723.0
20
57051.0
11
57173.0
21
57051.0
0
LINE
8
BLACK
10
57173.0
20
57051.0
11
57173.0
21
57242.0
0
LINE
8
BLACK
10
57173.0
20
57242.0
11
57199.0
21
57289.0
0
LINE
8
BLACK
10
57199.0
20
57289.0
11
57225.0
21
57313.0
0
LINE
8
BLACK
10
57225.0
20
57313.0
11
57277.0
21
57337.0
0
LINE
8
BLACK
10
57277.0
20
57337.0
11
57356.0
21
57337.0
0
LINE
8
BLACK
10
57356.0
20
57337.0
11
57408.0
21
57313.0
0
LINE
8
BLACK
10
57408.0
20
57313.0
11
57435.0
21
57289.0
0
LINE
8
BLACK
10
57435.0
20
57289.0
11
57461.0
21
57242.0
0
LINE
8
BLACK
10
57461.0
20
57242.0
11
57461.0
21
57051.0
0
LINE
8
BLACK
10
57723.0
20
57813.0
11
57723.0
21
57527.0
0
LINE
8
BLACK
10
57723.0
20
57670.0
11
57173.0
21
57670.0
0
LINE
8
BLACK
10
57173.0
20
57670.0
11
57251.0
21
57622.0
0
LINE
8
BLACK
10
57251.0
20
57622.0
11
57304.0
21
57575.0
0
LINE
8
BLACK
10
57304.0
20
57575.0
11
57330.0
21
57527.0
0
LINE
8
BLACK
10
63417.0
20
61197.0
11
63250.0
21
61459.0
0
LINE
8
BLACK
10
63131.0
20
61197.0
11
63131.0
21
61747.0
0
LINE
8
BLACK
10
63131.0
20
61747.0
11
63322.0
21
61747.0
0
LINE
8
BLACK
10
63322.0
20
61747.0
11
63369.0
21
61721.0
0
LINE
8
BLACK
10
63369.0
20
61721.0
11
63393.0
21
61695.0
0
LINE
8
BLACK
10
63393.0
20
61695.0
11
63417.0
21
61643.0
0
LINE
8
BLACK
10
63417.0
20
61643.0
11
63417.0
21
61564.0
0
LINE
8
BLACK
10
63417.0
20
61564.0
11
63393.0
21
61512.0
0
LINE
8
BLACK
10
63393.0
20
61512.0
11
63369.0
21
61485.0
0
LINE
8
BLACK
10
63369.0
20
61485.0
11
63322.0
21
61459.0
0
LINE
8
BLACK
10
63322.0
20
61459.0
11
63131.0
21
61459.0
0
LINE
8
BLACK
10
63845.0
20
61564.0
11
63845.0
21
61197.0
0
LINE
8
BLACK
10
63726.0
20
61774.0
11
63607.0
21
61381.0
0
LINE
8
BLACK
10
63607.0
20
61381.0
11
63917.0
21
61381.0
0
LINE
8
BLACK
10
63417.0
20
59947.0
11
63250.0
21
60209.0
0
LINE
8
BLACK
10
63131.0
20
59947.0
11
63131.0
21
60497.0
0
LINE
8
BLACK
10
63131.0
20
60497.0
11
63322.0
21
60497.0
0
LINE
8
BLACK
10
63322.0
20
60497.0
11
63369.0
21
60471.0
0
LINE
8
BLACK
10
63369.0
20
60471.0
11
63393.0
21
60445.0
0
LINE
8
BLACK
10
63393.0
20
60445.0
11
63417.0
21
60393.0
0
LINE
8
BLACK
10
63417.0
20
60393.0
11
63417.0
21
60314.0
0
LINE
8
BLACK
10
63417.0
20
60314.0
11
63393.0
21
60262.0
0
LINE
8
BLACK
10
63393.0
20
60262.0
11
63369.0
21
60235.0
0
LINE
8
BLACK
10
63369.0
20
60235.0
11
63322.0
21
60209.0
0
LINE
8
BLACK
10
63322.0
20
60209.0
11
63131.0
21
60209.0
0
LINE
8
BLACK
10
63583.0
20
60497.0
11
63893.0
21
60497.0
0
LINE
8
BLACK
10
63893.0
20
60497.0
11
63726.0
21
60288.0
0
LINE
8
BLACK
10
63726.0
20
60288.0
11
63798.0
21
60288.0
0
LINE
8
BLACK
10
63798.0
20
60288.0
11
63845.0
21
60262.0
0
LINE
8
BLACK
10
63845.0
20
60262.0
11
63869.0
21
60235.0
0
LINE
8
BLACK
10
63869.0
20
60235.0
11
63893.0
21
60183.0
0
LINE
8
BLACK
10
63893.0
20
60183.0
11
63893.0
21
60052.0
0
LINE
8
BLACK
10
63893.0
20
60052.0
11
63869.0
21
60000.0
0
LINE
8
BLACK
10
63869.0
20
60000.0
11
63845.0
21
59974.0
0
LINE
8
BLACK
10
63845.0
20
59974.0
11
63798.0
21
59947.0
0
LINE
8
BLACK
10
63798.0
20
59947.0
11
63655.0
21
59947.0
0
LINE
8
BLACK
10
63655.0
20
59947.0
11
63607.0
21
59974.0
0
LINE
8
BLACK
10
63607.0
20
59974.0
11
63583.0
21
60000.0
0
LINE
8
BLACK
10
57012.0
20
60525.0
11
56612.0
21
60525.0
0
LINE
8
BLACK
10
57012.0
20
60754.0
11
56783.0
21
60582.0
0
LINE
8
BLACK
10
56612.0
20
60754.0
11
56840.0
21
60525.0
0
LINE
8
BLACK
10
57012.0
20
61135.0
11
57012.0
21
60906.0
0
LINE
8
BLACK
10
57012.0
20
61020.0
11
56612.0
21
61020.0
0
LINE
8
BLACK
10
56612.0
20
61020.0
11
56669.0
21
60982.0
0
LINE
8
BLACK
10
56669.0
20
60982.0
11
56707.0
21
60944.0
0
LINE
8
BLACK
10
56707.0
20
60944.0
11
56726.0
21
60906.0
0
LINE
8
BLACK
10
66871.0
20
60448.0
11
66571.0
21
60448.0
0
LINE
8
BLACK
10
66571.0
20
60448.0
11
66571.0
21
60563.0
0
LINE
8
BLACK
10
66571.0
20
60563.0
11
66586.0
21
60591.0
0
LINE
8
BLACK
10
66586.0
20
60591.0
11
66600.0
21
60606.0
0
LINE
8
BLACK
10
66600.0
20
60606.0
11
66629.0
21
60620.0
0
LINE
8
BLACK
10
66629.0
20
60620.0
11
66671.0
21
60620.0
0
LINE
8
BLACK
10
66671.0
20
60620.0
11
66700.0
21
60606.0
0
LINE
8
BLACK
10
66700.0
20
60606.0
11
66714.0
21
60591.0
0
LINE
8
BLACK
10
66714.0
20
60591.0
11
66729.0
21
60563.0
0
LINE
8
BLACK
10
66729.0
20
60563.0
11
66729.0
21
60448.0
0
LINE
8
BLACK
10
66871.0
20
60906.0
11
66871.0
21
60734.0
0
LINE
8
BLACK
10
66871.0
20
60820.0
11
66571.0
21
60820.0
0
LINE
8
BLACK
10
66571.0
20
60820.0
11
66614.0
21
60791.0
0
LINE
8
BLACK
10
66614.0
20
60791.0
11
66643.0
21
60763.0
0
LINE
8
BLACK
10
66643.0
20
60763.0
11
66657.0
21
60734.0
0
LINE
8
BLACK
10
60695.0
20
60366.0
11
60695.0
21
59759.0
0
LINE
8
BLACK
10
60695.0
20
59759.0
11
60714.0
21
59688.0
0
LINE
8
BLACK
10
60714.0
20
59688.0
11
60733.0
21
59652.0
0
LINE
8
BLACK
10
60733.0
20
59652.0
11
60771.0
21
59616.0
0
LINE
8
BLACK
10
60771.0
20
59616.0
11
60848.0
21
59616.0
0
LINE
8
BLACK
10
60848.0
20
59616.0
11
60886.0
21
59652.0
0
LINE
8
BLACK
10
60886.0
20
59652.0
11
60905.0
21
59688.0
0
LINE
8
BLACK
10
60905.0
20
59688.0
11
60924.0
21
59759.0
0
LINE
8
BLACK
10
60924.0
20
59759.0
11
60924.0
21
60366.0
0
LINE
8
BLACK
10
61324.0
20
59616.0
11
61095.0
21
59616.0
0
LINE
8
BLACK
10
61209.0
20
59616.0
11
61209.0
21
60366.0
0
LINE
8
BLACK
10
61209.0
20
60366.0
11
61171.0
21
60259.0
0
LINE
8
BLACK
10
61171.0
20
60259.0
11
61133.0
21
60188.0
0
LINE
8
BLACK
10
61133.0
20
60188.0
11
61095.0
21
60152.0
0
LINE
8
BLACK
10
60695.0
20
66866.0
11
60695.0
21
66259.0
0
LINE
8
BLACK
10
60695.0
20
66259.0
11
60714.0
21
66188.0
0
LINE
8
BLACK
10
60714.0
20
66188.0
11
60733.0
21
66152.0
0
LINE
8
BLACK
10
60733.0
20
66152.0
11
60771.0
21
66116.0
0
LINE
8
BLACK
10
60771.0
20
66116.0
11
60848.0
21
66116.0
0
LINE
8
BLACK
10
60848.0
20
66116.0
11
60886.0
21
66152.0
0
LINE
8
BLACK
10
60886.0
20
66152.0
11
60905.0
21
66188.0
0
LINE
8
BLACK
10
60905.0
20
66188.0
11
60924.0
21
66259.0
0
LINE
8
BLACK
10
60924.0
20
66259.0
11
60924.0
21
66866.0
0
LINE
8
BLACK
10
61095.0
20
66795.0
11
61114.0
21
66831.0
0
LINE
8
BLACK
10
61114.0
20
66831.0
11
61152.0
21
66866.0
0
LINE
8
BLACK
10
61152.0
20
66866.0
11
61248.0
21
66866.0
0
LINE
8
BLACK
10
61248.0
20
66866.0
11
61286.0
21
66831.0
0
LINE
8
BLACK
10
61286.0
20
66831.0
11
61305.0
21
66795.0
0
LINE
8
BLACK
10
61305.0
20
66795.0
11
61324.0
21
66724.0
0
LINE
8
BLACK
10
61324.0
20
66724.0
11
61324.0
21
66652.0
0
LINE
8
BLACK
10
61324.0
20
66652.0
11
61305.0
21
66545.0
0
LINE
8
BLACK
10
61305.0
20
66545.0
11
61076.0
21
66116.0
0
LINE
8
BLACK
10
61076.0
20
66116.0
11
61324.0
21
66116.0
0
ENDSEC
0
EOF
