0
SECTION
2
HEADER
9
$ANGBASE
50
0.0
9
$ANGDIR
70
0
0
ENDSEC
0
SECTION
2
TABLES
0
TABLE
2
LTYPE
70
1
0
LTYPE
2
CONTINUOUS
70
0
3
Solid line
72
65
73
0
40
0.0
0
ENDTAB
0
TABLE
2
LAYER
70
24
0
LAYER
2
BLACK
70
0
62
1
6
CONTINUOUS
0
LAYER
2
BLUE
70
0
62
2
6
CONTINUOUS
0
LAYER
2
GREEN
70
0
62
3
6
CONTINUOUS
0
LAYER
2
CYAN
70
0
62
4
6
CONTINUOUS
0
LAYER
2
RED
70
0
62
5
6
CONTINUOUS
0
LAYER
2
MAGENTA
70
0
62
6
6
CONTINUOUS
0
LAYER
2
BROWN
70
0
62
7
6
CONTINUOUS
0
LAYER
2
GRAY
70
0
62
8
6
CONTINUOUS
0
LAYER
2
DARKGRAY
70
0
62
9
6
CONTINUOUS
0
LAYER
2
LIGHTBLUE
70
0
62
10
6
CONTINUOUS
0
LAYER
2
LIGHTGREEN
70
0
62
11
6
CONTINUOUS
0
LAYER
2
LIGHTCYAN
70
0
62
12
6
CONTINUOUS
0
LAYER
2
LIGHTRED
70
0
62
13
6
CONTINUOUS
0
LAYER
2
LIGHTMAGENTA
70
0
62
14
6
CONTINUOUS
0
LAYER
2
YELLOW
70
0
62
15
6
CONTINUOUS
0
LAYER
2
WHITE
70
0
62
16
6
CONTINUOUS
0
LAYER
2
DARKDARKGRAY
70
0
62
17
6
CONTINUOUS
0
LAYER
2
DARKBLUE
70
0
62
18
6
CONTINUOUS
0
LAYER
2
DARKGREEN
70
0
62
19
6
CONTINUOUS
0
LAYER
2
DARKCYAN
70
0
62
20
6
CONTINUOUS
0
LAYER
2
DARKRED
70
0
62
21
6
CONTINUOUS
0
LAYER
2
DARKMAGENTA
70
0
62
22
6
CONTINUOUS
0
LAYER
2
DARKBROWN
70
0
62
23
6
CONTINUOUS
0
LAYER
2
LIGHTYELLOW
70
0
62
24
6
CONTINUOUS
0
ENDTAB
0
ENDSEC
0
SECTION
2
ENTITIES
0
LINE
8
BLACK
10
54750.0
20
68095.0
11
73000.0
21
68095.0
0
LINE
8
BLACK
10
54750.0
20
68245.0
11
73000.0
21
68245.0
0
ARC
8
BLACK
10
73000.0
20
68170.0
40
75.0
50
270.0
51
450.0
0
ARC
8
BLACK
10
54750.0
20
68170.0
40
75.0
50
90.0
51
270.0
0
LINE
8
BLACK
10
73075.0
20
53670.0
11
73075.0
21
68170.0
0
LINE
8
BLACK
10
72925.0
20
53670.0
11
72925.0
21
68170.0
0
ARC
8
BLACK
10
73000.0
20
68170.0
40
75.0
50
360.0
51
540.0
0
ARC
8
BLACK
10
73000.0
20
53670.0
40
75.0
50
180.0
51
360.0
0
LINE
8
BLACK
10
54750.0
20
53595.0
11
73000.0
21
53595.0
0
LINE
8
BLACK
10
54750.0
20
53745.0
11
73000.0
21
53745.0
0
ARC
8
BLACK
10
73000.0
20
53670.0
40
75.0
50
270.0
51
450.0
0
ARC
8
BLACK
10
54750.0
20
53670.0
40
75.0
50
90.0
51
270.0
0
LINE
8
BLACK
10
54825.0
20
53670.0
11
54825.0
21
68170.0
0
LINE
8
BLACK
10
54675.0
20
53670.0
11
54675.0
21
68170.0
0
ARC
8
BLACK
10
54750.0
20
68170.0
40
75.0
50
360.0
51
540.0
0
ARC
8
BLACK
10
54750.0
20
53670.0
40
75.0
50
180.0
51
360.0
0
LINE
8
BLACK
10
63650.0
20
63770.0
11
63650.0
21
63070.0
0
LINE
8
BLACK
10
63650.0
20
63070.0
11
64350.0
21
63070.0
0
LINE
8
BLACK
10
64350.0
20
63070.0
11
64350.0
21
63770.0
0
LINE
8
BLACK
10
64350.0
20
63770.0
11
63650.0
21
63770.0
0
CIRCLE
8
BLACK
10
64000.0
20
65420.0
40
350
0
CIRCLE
8
BLACK
10
64000.0
20
64420.0
40
350
0
LINE
8
BLACK
10
68750.0
20
66170.0
11
68750.0
21
62670.0
0
LINE
8
BLACK
10
68750.0
20
62670.0
11
72250.0
21
62670.0
0
LINE
8
BLACK
10
72250.0
20
62670.0
11
72250.0
21
66170.0
0
LINE
8
BLACK
10
72250.0
20
66170.0
11
68750.0
21
66170.0
0
LINE
8
BLACK
10
63650.0
20
56520.0
11
63650.0
21
55820.0
0
LINE
8
BLACK
10
63650.0
20
55820.0
11
64350.0
21
55820.0
0
LINE
8
BLACK
10
64350.0
20
55820.0
11
64350.0
21
56520.0
0
LINE
8
BLACK
10
64350.0
20
56520.0
11
63650.0
21
56520.0
0
CIRCLE
8
BLACK
10
64000.0
20
58170.0
40
350
0
CIRCLE
8
BLACK
10
64000.0
20
57170.0
40
350
0
LINE
8
BLACK
10
68750.0
20
58920.0
11
68750.0
21
55420.0
0
LINE
8
BLACK
10
68750.0
20
55420.0
11
72250.0
21
55420.0
0
LINE
8
BLACK
10
72250.0
20
55420.0
11
72250.0
21
58920.0
0
LINE
8
BLACK
10
72250.0
20
58920.0
11
68750.0
21
58920.0
0
CIRCLE
8
BLACK
10
57500.0
20
66920.0
40
300
0
CIRCLE
8
BLACK
10
57500.0
20
61920.0
40
300
0
CIRCLE
8
BLACK
10
57500.0
20
54920.0
40
300
0
CIRCLE
8
BLACK
10
57500.0
20
59920.0
40
300
0
CIRCLE
8
BLACK
10
66000.0
20
61420.0
40
300
0
CIRCLE
8
BLACK
10
61000.0
20
61420.0
40
300
0
CIRCLE
8
BLACK
10
66000.0
20
60170.0
40
300
0
CIRCLE
8
BLACK
10
61000.0
20
60170.0
40
300
0
LINE
8
BLACK
10
56300.0
20
62220.0
11
55700.0
21
62220.0
0
LINE
8
BLACK
10
55700.0
20
62220.0
11
55700.0
21
61620.0
0
LINE
8
BLACK
10
55700.0
20
61620.0
11
56300.0
21
61620.0
0
LINE
8
BLACK
10
56300.0
20
61620.0
11
56300.0
21
62220.0
0
CIRCLE
8
BLACK
10
56000.0
20
60920.0
40
300
0
CIRCLE
8
BLACK
10
56000.0
20
59920.0
40
300
0
LINE
8
BLACK
10
67200.0
20
59870.0
11
67800.0
21
59870.0
0
LINE
8
BLACK
10
67800.0
20
59870.0
11
67800.0
21
60470.0
0
LINE
8
BLACK
10
67800.0
20
60470.0
11
67200.0
21
60470.0
0
LINE
8
BLACK
10
67200.0
20
60470.0
11
67200.0
21
59870.0
0
CIRCLE
8
BLACK
10
67500.0
20
61170.0
40
300
0
LINE
8
BLACK
10
59775.0
20
58695.0
11
59225.0
21
58695.0
0
LINE
8
BLACK
10
59225.0
20
58695.0
11
59225.0
21
58145.0
0
LINE
8
BLACK
10
59225.0
20
58145.0
11
59775.0
21
58145.0
0
LINE
8
BLACK
10
59775.0
20
58145.0
11
59775.0
21
58695.0
0
CIRCLE
8
BLACK
10
59500.0
20
57420.0
40
275
0
CIRCLE
8
BLACK
10
59500.0
20
56420.0
40
275
0
CIRCLE
8
BLACK
10
62500.0
20
56420.0
40
275
0
CIRCLE
8
BLACK
10
62500.0
20
57420.0
40
275
0
CIRCLE
8
BLACK
10
62500.0
20
58420.0
40
275
0
LINE
8
BLACK
10
59775.0
20
65195.0
11
59225.0
21
65195.0
0
LINE
8
BLACK
10
59225.0
20
65195.0
11
59225.0
21
64645.0
0
LINE
8
BLACK
10
59225.0
20
64645.0
11
59775.0
21
64645.0
0
LINE
8
BLACK
10
59775.0
20
64645.0
11
59775.0
21
65195.0
0
CIRCLE
8
BLACK
10
59500.0
20
63920.0
40
275
0
CIRCLE
8
BLACK
10
59500.0
20
62920.0
40
275
0
CIRCLE
8
BLACK
10
62500.0
20
62920.0
40
275
0
CIRCLE
8
BLACK
10
62500.0
20
63920.0
40
275
0
CIRCLE
8
BLACK
10
62500.0
20
64920.0
40
275
0
LINE
8
BLACK
10
59606.0
20
57314.0
11
60356.0
21
58064.0
0
LINE
8
BLACK
10
59394.0
20
57526.0
11
60144.0
21
58276.0
0
ARC
8
BLACK
10
60250.0
20
58170.0
40
150.0
50
315.0
51
495.0
0
ARC
8
BLACK
10
59500.0
20
57420.0
40
150.0
50
135.0
51
315.0
0
LINE
8
BLACK
10
60355.0
20
58777.0
11
58107.0
21
61025.0
0
LINE
8
BLACK
10
60143.0
20
58565.0
11
57895.0
21
60813.0
0
ARC
8
BLACK
10
58001.0
20
60919.0
40
150.0
50
405.0
51
585.0
0
ARC
8
BLACK
10
60249.0
20
58671.0
40
150.0
50
225.0
51
405.0
0
LINE
8
BLACK
10
60400.0
20
58170.0
11
60400.0
21
58670.0
0
LINE
8
BLACK
10
60100.0
20
58170.0
11
60100.0
21
58670.0
0
ARC
8
BLACK
10
60250.0
20
58670.0
40
150.0
50
360.0
51
540.0
0
ARC
8
BLACK
10
60250.0
20
58170.0
40
150.0
50
180.0
51
360.0
0
LINE
8
BLACK
10
56000.0
20
60770.0
11
58000.0
21
60770.0
0
LINE
8
BLACK
10
56000.0
20
61070.0
11
58000.0
21
61070.0
0
ARC
8
BLACK
10
58000.0
20
60920.0
40
150.0
50
270.0
51
450.0
0
ARC
8
BLACK
10
56000.0
20
60920.0
40
150.0
50
90.0
51
270.0
0
LINE
8
BLACK
10
58856.0
20
63064.0
11
59606.0
21
63814.0
0
LINE
8
BLACK
10
58644.0
20
63276.0
11
59394.0
21
64026.0
0
ARC
8
BLACK
10
59500.0
20
63920.0
40
150.0
50
315.0
51
495.0
0
ARC
8
BLACK
10
58750.0
20
63170.0
40
150.0
50
135.0
51
315.0
0
LINE
8
BLACK
10
58900.0
20
61670.0
11
58900.0
21
63170.0
0
LINE
8
BLACK
10
58600.0
20
61670.0
11
58600.0
21
63170.0
0
ARC
8
BLACK
10
58750.0
20
63170.0
40
150.0
50
360.0
51
540.0
0
ARC
8
BLACK
10
58750.0
20
61670.0
40
150.0
50
180.0
51
360.0
0
LINE
8
BLACK
10
58106.0
20
60814.0
11
58856.0
21
61564.0
0
LINE
8
BLACK
10
57894.0
20
61026.0
11
58644.0
21
61776.0
0
ARC
8
BLACK
10
58750.0
20
61670.0
40
150.0
50
315.0
51
495.0
0
ARC
8
BLACK
10
58000.0
20
60920.0
40
150.0
50
135.0
51
315.0
0
LINE
8
BLACK
10
56000.0
20
59770.0
11
57500.0
21
59770.0
0
LINE
8
BLACK
10
56000.0
20
60070.0
11
57500.0
21
60070.0
0
ARC
8
BLACK
10
57500.0
20
59920.0
40
150.0
50
270.0
51
450.0
0
ARC
8
BLACK
10
56000.0
20
59920.0
40
150.0
50
90.0
51
270.0
0
LINE
8
BLACK
10
57650.0
20
54920.0
11
57650.0
21
57420.0
0
LINE
8
BLACK
10
57350.0
20
54920.0
11
57350.0
21
57420.0
0
ARC
8
BLACK
10
57500.0
20
57420.0
40
150.0
50
360.0
51
540.0
0
ARC
8
BLACK
10
57500.0
20
54920.0
40
150.0
50
180.0
51
360.0
0
LINE
8
BLACK
10
58500.0
20
58270.0
11
59500.0
21
58270.0
0
LINE
8
BLACK
10
58500.0
20
58570.0
11
59500.0
21
58570.0
0
ARC
8
BLACK
10
59500.0
20
58420.0
40
150.0
50
270.0
51
450.0
0
ARC
8
BLACK
10
58500.0
20
58420.0
40
150.0
50
90.0
51
270.0
0
LINE
8
BLACK
10
57606.0
20
57314.0
11
58606.0
21
58314.0
0
LINE
8
BLACK
10
57394.0
20
57526.0
11
58394.0
21
58526.0
0
ARC
8
BLACK
10
58500.0
20
58420.0
40
150.0
50
315.0
51
495.0
0
ARC
8
BLACK
10
57500.0
20
57420.0
40
150.0
50
135.0
51
315.0
0
LINE
8
BLACK
10
64106.0
20
56276.0
11
63356.0
21
57026.0
0
LINE
8
BLACK
10
63894.0
20
56064.0
11
63144.0
21
56814.0
0
ARC
8
BLACK
10
63250.0
20
56920.0
40
150.0
50
405.0
51
585.0
0
ARC
8
BLACK
10
64000.0
20
56170.0
40
150.0
50
225.0
51
405.0
0
LINE
8
BLACK
10
65750.0
20
62020.0
11
66500.0
21
62020.0
0
LINE
8
BLACK
10
65750.0
20
62320.0
11
66500.0
21
62320.0
0
ARC
8
BLACK
10
66500.0
20
62170.0
40
150.0
50
270.0
51
450.0
0
ARC
8
BLACK
10
65750.0
20
62170.0
40
150.0
50
90.0
51
270.0
0
LINE
8
BLACK
10
65356.0
20
61564.0
11
65856.0
21
62064.0
0
LINE
8
BLACK
10
65144.0
20
61776.0
11
65644.0
21
62276.0
0
ARC
8
BLACK
10
65750.0
20
62170.0
40
150.0
50
315.0
51
495.0
0
ARC
8
BLACK
10
65250.0
20
61670.0
40
150.0
50
135.0
51
315.0
0
LINE
8
BLACK
10
65400.0
20
59920.0
11
65400.0
21
61670.0
0
LINE
8
BLACK
10
65100.0
20
59920.0
11
65100.0
21
61670.0
0
ARC
8
BLACK
10
65250.0
20
61670.0
40
150.0
50
360.0
51
540.0
0
ARC
8
BLACK
10
65250.0
20
59920.0
40
150.0
50
180.0
51
360.0
0
LINE
8
BLACK
10
64356.0
20
58814.0
11
65356.0
21
59814.0
0
LINE
8
BLACK
10
64144.0
20
59026.0
11
65144.0
21
60026.0
0
ARC
8
BLACK
10
65250.0
20
59920.0
40
150.0
50
315.0
51
495.0
0
ARC
8
BLACK
10
64250.0
20
58920.0
40
150.0
50
135.0
51
315.0
0
LINE
8
BLACK
10
63750.0
20
58770.0
11
64250.0
21
58770.0
0
LINE
8
BLACK
10
63750.0
20
59070.0
11
64250.0
21
59070.0
0
ARC
8
BLACK
10
64250.0
20
58920.0
40
150.0
50
270.0
51
450.0
0
ARC
8
BLACK
10
63750.0
20
58920.0
40
150.0
50
90.0
51
270.0
0
LINE
8
BLACK
10
63356.0
20
58314.0
11
63856.0
21
58814.0
0
LINE
8
BLACK
10
63144.0
20
58526.0
11
63644.0
21
59026.0
0
ARC
8
BLACK
10
63750.0
20
58920.0
40
150.0
50
315.0
51
495.0
0
ARC
8
BLACK
10
63250.0
20
58420.0
40
150.0
50
135.0
51
315.0
0
LINE
8
BLACK
10
63400.0
20
56920.0
11
63400.0
21
58420.0
0
LINE
8
BLACK
10
63100.0
20
56920.0
11
63100.0
21
58420.0
0
ARC
8
BLACK
10
63250.0
20
58420.0
40
150.0
50
360.0
51
540.0
0
ARC
8
BLACK
10
63250.0
20
56920.0
40
150.0
50
180.0
51
360.0
0
LINE
8
BLACK
10
64000.0
20
63270.0
11
65250.0
21
63270.0
0
LINE
8
BLACK
10
64000.0
20
63570.0
11
65250.0
21
63570.0
0
ARC
8
BLACK
10
65250.0
20
63420.0
40
150.0
50
270.0
51
450.0
0
ARC
8
BLACK
10
64000.0
20
63420.0
40
150.0
50
90.0
51
270.0
0
LINE
8
BLACK
10
65145.0
20
63313.0
11
66393.0
21
62065.0
0
LINE
8
BLACK
10
65357.0
20
63525.0
11
66605.0
21
62277.0
0
ARC
8
BLACK
10
66499.0
20
62171.0
40
150.0
50
225.0
51
405.0
0
ARC
8
BLACK
10
65251.0
20
63419.0
40
150.0
50
45.0
51
225.0
0
LINE
8
BLACK
10
66394.0
20
62064.0
11
67394.0
21
61064.0
0
LINE
8
BLACK
10
66606.0
20
62276.0
11
67606.0
21
61276.0
0
ARC
8
BLACK
10
67500.0
20
61170.0
40
150.0
50
225.0
51
405.0
0
ARC
8
BLACK
10
66500.0
20
62170.0
40
150.0
50
45.0
51
225.0
0
LINE
8
BLACK
10
63894.0
20
65314.0
11
64644.0
21
64564.0
0
LINE
8
BLACK
10
64106.0
20
65526.0
11
64856.0
21
64776.0
0
ARC
8
BLACK
10
64750.0
20
64670.0
40
150.0
50
225.0
51
405.0
0
ARC
8
BLACK
10
64000.0
20
65420.0
40
150.0
50
45.0
51
225.0
0
LINE
8
BLACK
10
68144.0
20
61026.0
11
67394.0
21
60276.0
0
LINE
8
BLACK
10
68356.0
20
60814.0
11
67606.0
21
60064.0
0
ARC
8
BLACK
10
67500.0
20
60170.0
40
150.0
50
135.0
51
315.0
0
ARC
8
BLACK
10
68250.0
20
60920.0
40
150.0
50
-45.0
51
135.0
0
LINE
8
BLACK
10
68400.0
20
60920.0
11
68400.0
21
61420.0
0
LINE
8
BLACK
10
68100.0
20
60920.0
11
68100.0
21
61420.0
0
ARC
8
BLACK
10
68250.0
20
61420.0
40
150.0
50
360.0
51
540.0
0
ARC
8
BLACK
10
68250.0
20
60920.0
40
150.0
50
180.0
51
360.0
0
LINE
8
BLACK
10
67644.0
20
61814.0
11
68144.0
21
61314.0
0
LINE
8
BLACK
10
67856.0
20
62026.0
11
68356.0
21
61526.0
0
ARC
8
BLACK
10
68250.0
20
61420.0
40
150.0
50
225.0
51
405.0
0
ARC
8
BLACK
10
67750.0
20
61920.0
40
150.0
50
45.0
51
225.0
0
LINE
8
BLACK
10
67500.0
20
61770.0
11
67750.0
21
61770.0
0
LINE
8
BLACK
10
67500.0
20
62070.0
11
67750.0
21
62070.0
0
ARC
8
BLACK
10
67750.0
20
61920.0
40
150.0
50
270.0
51
450.0
0
ARC
8
BLACK
10
67500.0
20
61920.0
40
150.0
50
90.0
51
270.0
0
LINE
8
BLACK
10
64644.0
20
64564.0
11
67394.0
21
61814.0
0
LINE
8
BLACK
10
64856.0
20
64776.0
11
67606.0
21
62026.0
0
ARC
8
BLACK
10
67500.0
20
61920.0
40
150.0
50
225.0
51
405.0
0
ARC
8
BLACK
10
64750.0
20
64670.0
40
150.0
50
45.0
51
225.0
0
LINE
8
BLACK
10
64000.0
20
58020.0
11
64250.0
21
58020.0
0
LINE
8
BLACK
10
64000.0
20
58320.0
11
64250.0
21
58320.0
0
ARC
8
BLACK
10
64250.0
20
58170.0
40
150.0
50
270.0
51
450.0
0
ARC
8
BLACK
10
64000.0
20
58170.0
40
150.0
50
90.0
51
270.0
0
LINE
8
BLACK
10
66150.0
20
59920.0
11
66150.0
21
60170.0
0
LINE
8
BLACK
10
65850.0
20
59920.0
11
65850.0
21
60170.0
0
ARC
8
BLACK
10
66000.0
20
60170.0
40
150.0
50
360.0
51
540.0
0
ARC
8
BLACK
10
66000.0
20
59920.0
40
150.0
50
180.0
51
360.0
0
LINE
8
BLACK
10
64356.0
20
58064.0
11
66106.0
21
59814.0
0
LINE
8
BLACK
10
64144.0
20
58276.0
11
65894.0
21
60026.0
0
ARC
8
BLACK
10
66000.0
20
59920.0
40
150.0
50
315.0
51
495.0
0
ARC
8
BLACK
10
64250.0
20
58170.0
40
150.0
50
135.0
51
315.0
0
LINE
8
BLACK
10
67250.0
20
60020.0
11
67500.0
21
60020.0
0
LINE
8
BLACK
10
67250.0
20
60320.0
11
67500.0
21
60320.0
0
ARC
8
BLACK
10
67500.0
20
60170.0
40
150.0
50
270.0
51
450.0
0
ARC
8
BLACK
10
67250.0
20
60170.0
40
150.0
50
90.0
51
270.0
0
LINE
8
BLACK
10
67355.0
20
60277.0
11
66107.0
21
61525.0
0
LINE
8
BLACK
10
67143.0
20
60065.0
11
65895.0
21
61313.0
0
ARC
8
BLACK
10
66001.0
20
61419.0
40
150.0
50
405.0
51
585.0
0
ARC
8
BLACK
10
67249.0
20
60171.0
40
150.0
50
225.0
51
405.0
0
LINE
8
BLACK
10
66150.0
20
60170.0
11
66150.0
21
61420.0
0
LINE
8
BLACK
10
65850.0
20
60170.0
11
65850.0
21
61420.0
0
ARC
8
BLACK
10
66000.0
20
61420.0
40
150.0
50
360.0
51
540.0
0
ARC
8
BLACK
10
66000.0
20
60170.0
40
150.0
50
180.0
51
360.0
0
LINE
8
BLACK
10
61150.0
20
61420.0
11
61150.0
21
64420.0
0
LINE
8
BLACK
10
60850.0
20
61420.0
11
60850.0
21
64420.0
0
ARC
8
BLACK
10
61000.0
20
64420.0
40
150.0
50
360.0
51
540.0
0
ARC
8
BLACK
10
61000.0
20
61420.0
40
150.0
50
180.0
51
360.0
0
LINE
8
BLACK
10
61500.0
20
64770.0
11
62500.0
21
64770.0
0
LINE
8
BLACK
10
61500.0
20
65070.0
11
62500.0
21
65070.0
0
ARC
8
BLACK
10
62500.0
20
64920.0
40
150.0
50
270.0
51
450.0
0
ARC
8
BLACK
10
61500.0
20
64920.0
40
150.0
50
90.0
51
270.0
0
LINE
8
BLACK
10
61106.0
20
64314.0
11
61606.0
21
64814.0
0
LINE
8
BLACK
10
60894.0
20
64526.0
11
61394.0
21
65026.0
0
ARC
8
BLACK
10
61500.0
20
64920.0
40
150.0
50
315.0
51
495.0
0
ARC
8
BLACK
10
61000.0
20
64420.0
40
150.0
50
135.0
51
315.0
0
LINE
8
BLACK
10
62500.0
20
62770.0
11
62750.0
21
62770.0
0
LINE
8
BLACK
10
62500.0
20
63070.0
11
62750.0
21
63070.0
0
ARC
8
BLACK
10
62750.0
20
62920.0
40
150.0
50
270.0
51
450.0
0
ARC
8
BLACK
10
62500.0
20
62920.0
40
150.0
50
90.0
51
270.0
0
LINE
8
BLACK
10
63500.0
20
64270.0
11
64000.0
21
64270.0
0
LINE
8
BLACK
10
63500.0
20
64570.0
11
64000.0
21
64570.0
0
ARC
8
BLACK
10
64000.0
20
64420.0
40
150.0
50
270.0
51
450.0
0
ARC
8
BLACK
10
63500.0
20
64420.0
40
150.0
50
90.0
51
270.0
0
LINE
8
BLACK
10
63357.0
20
64064.0
11
63606.0
21
64313.0
0
LINE
8
BLACK
10
63144.0
20
64277.0
11
63393.0
21
64526.0
0
ARC
8
BLACK
10
63499.0
20
64419.0
40
150.0
50
315.0
51
495.0
0
ARC
8
BLACK
10
63251.0
20
64171.0
40
150.0
50
135.0
51
315.0
0
LINE
8
BLACK
10
63400.0
20
63420.0
11
63400.0
21
64170.0
0
LINE
8
BLACK
10
63100.0
20
63420.0
11
63100.0
21
64170.0
0
ARC
8
BLACK
10
63250.0
20
64170.0
40
150.0
50
360.0
51
540.0
0
ARC
8
BLACK
10
63250.0
20
63420.0
40
150.0
50
180.0
51
360.0
0
LINE
8
BLACK
10
62856.0
20
62814.0
11
63356.0
21
63314.0
0
LINE
8
BLACK
10
62644.0
20
63026.0
11
63144.0
21
63526.0
0
ARC
8
BLACK
10
63250.0
20
63420.0
40
150.0
50
315.0
51
495.0
0
ARC
8
BLACK
10
62750.0
20
62920.0
40
150.0
50
135.0
51
315.0
0
ARC
8
BLACK
10
64000.0
20
64420.0
40
150.0
50
180.0
51
360.0
0
ARC
8
BLACK
10
64000.0
20
64420.0
40
150.0
50
0.0
51
180.0
0
LINE
8
BLACK
10
57650.0
20
65920.0
11
57650.0
21
66920.0
0
LINE
8
BLACK
10
57350.0
20
65920.0
11
57350.0
21
66920.0
0
ARC
8
BLACK
10
57500.0
20
66920.0
40
150.0
50
360.0
51
540.0
0
ARC
8
BLACK
10
57500.0
20
65920.0
40
150.0
50
180.0
51
360.0
0
LINE
8
BLACK
10
58500.0
20
64770.0
11
59500.0
21
64770.0
0
LINE
8
BLACK
10
58500.0
20
65070.0
11
59500.0
21
65070.0
0
ARC
8
BLACK
10
59500.0
20
64920.0
40
150.0
50
270.0
51
450.0
0
ARC
8
BLACK
10
58500.0
20
64920.0
40
150.0
50
90.0
51
270.0
0
LINE
8
BLACK
10
57394.0
20
65814.0
11
58394.0
21
64814.0
0
LINE
8
BLACK
10
57606.0
20
66026.0
11
58606.0
21
65026.0
0
ARC
8
BLACK
10
58500.0
20
64920.0
40
150.0
50
225.0
51
405.0
0
ARC
8
BLACK
10
57500.0
20
65920.0
40
150.0
50
45.0
51
225.0
0
LINE
8
BLACK
10
61150.0
20
58920.0
11
61150.0
21
60170.0
0
LINE
8
BLACK
10
60850.0
20
58920.0
11
60850.0
21
60170.0
0
ARC
8
BLACK
10
61000.0
20
60170.0
40
150.0
50
360.0
51
540.0
0
ARC
8
BLACK
10
61000.0
20
58920.0
40
150.0
50
180.0
51
360.0
0
LINE
8
BLACK
10
61500.0
20
58270.0
11
62500.0
21
58270.0
0
LINE
8
BLACK
10
61500.0
20
58570.0
11
62500.0
21
58570.0
0
ARC
8
BLACK
10
62500.0
20
58420.0
40
150.0
50
270.0
51
450.0
0
ARC
8
BLACK
10
61500.0
20
58420.0
40
150.0
50
90.0
51
270.0
0
LINE
8
BLACK
10
60894.0
20
58814.0
11
61394.0
21
58314.0
0
LINE
8
BLACK
10
61106.0
20
59026.0
11
61606.0
21
58526.0
0
ARC
8
BLACK
10
61500.0
20
58420.0
40
150.0
50
225.0
51
405.0
0
ARC
8
BLACK
10
61000.0
20
58920.0
40
150.0
50
45.0
51
225.0
0
LINE
8
BLACK
10
62394.0
20
56314.0
11
63394.0
21
55314.0
0
LINE
8
BLACK
10
62606.0
20
56526.0
11
63606.0
21
55526.0
0
ARC
8
BLACK
10
63500.0
20
55420.0
40
150.0
50
225.0
51
405.0
0
ARC
8
BLACK
10
62500.0
20
56420.0
40
150.0
50
45.0
51
225.0
0
LINE
8
BLACK
10
64000.0
20
57020.0
11
64250.0
21
57020.0
0
LINE
8
BLACK
10
64000.0
20
57320.0
11
64250.0
21
57320.0
0
ARC
8
BLACK
10
64250.0
20
57170.0
40
150.0
50
270.0
51
450.0
0
ARC
8
BLACK
10
64000.0
20
57170.0
40
150.0
50
90.0
51
270.0
0
LINE
8
BLACK
10
64856.0
20
56776.0
11
64356.0
21
57276.0
0
LINE
8
BLACK
10
64644.0
20
56564.0
11
64144.0
21
57064.0
0
ARC
8
BLACK
10
64250.0
20
57170.0
40
150.0
50
405.0
51
585.0
0
ARC
8
BLACK
10
64750.0
20
56670.0
40
150.0
50
225.0
51
405.0
0
LINE
8
BLACK
10
64900.0
20
55670.0
11
64900.0
21
56670.0
0
LINE
8
BLACK
10
64600.0
20
55670.0
11
64600.0
21
56670.0
0
ARC
8
BLACK
10
64750.0
20
56670.0
40
150.0
50
360.0
51
540.0
0
ARC
8
BLACK
10
64750.0
20
55670.0
40
150.0
50
180.0
51
360.0
0
LINE
8
BLACK
10
64607.0
20
55314.0
11
64856.0
21
55563.0
0
LINE
8
BLACK
10
64394.0
20
55527.0
11
64643.0
21
55776.0
0
ARC
8
BLACK
10
64749.0
20
55669.0
40
150.0
50
315.0
51
495.0
0
ARC
8
BLACK
10
64501.0
20
55421.0
40
150.0
50
135.0
51
315.0
0
LINE
8
BLACK
10
63500.0
20
55270.0
11
64500.0
21
55270.0
0
LINE
8
BLACK
10
63500.0
20
55570.0
11
64500.0
21
55570.0
0
ARC
8
BLACK
10
64500.0
20
55420.0
40
150.0
50
270.0
51
450.0
0
ARC
8
BLACK
10
63500.0
20
55420.0
40
150.0
50
90.0
51
270.0
0
LINE
8
BLACK
10
56000.0
20
61770.0
11
57500.0
21
61770.0
0
LINE
8
BLACK
10
56000.0
20
62070.0
11
57500.0
21
62070.0
0
ARC
8
BLACK
10
57500.0
20
61920.0
40
150.0
50
270.0
51
450.0
0
ARC
8
BLACK
10
56000.0
20
61920.0
40
150.0
50
90.0
51
270.0
0
LINE
8
BLACK
10
72675.0
20
53995.0
11
72499.0
21
53995.0
0
LINE
8
BLACK
10
72499.0
20
53995.0
11
72499.0
21
55370.0
0
LINE
8
BLACK
10
72499.0
20
55370.0
11
72499.0
21
55469.0
0
LINE
8
BLACK
10
72499.0
20
55469.0
11
72499.0
21
58969.0
0
LINE
8
BLACK
10
72499.0
20
58969.0
11
72499.0
21
62620.0
0
LINE
8
BLACK
10
72499.0
20
62620.0
11
72499.0
21
62719.0
0
LINE
8
BLACK
10
72499.0
20
62719.0
11
72499.0
21
66219.0
0
LINE
8
BLACK
10
72499.0
20
66219.0
11
72461.0
21
66311.0
0
LINE
8
BLACK
10
72461.0
20
66311.0
11
72391.0
21
66381.0
0
LINE
8
BLACK
10
72391.0
20
66381.0
11
72300.0
21
66419.0
0
LINE
8
BLACK
10
72300.0
20
66419.0
11
72201.0
21
66419.0
0
LINE
8
BLACK
10
72201.0
20
66419.0
11
68701.0
21
66419.0
0
LINE
8
BLACK
10
68701.0
20
66419.0
11
68609.0
21
66381.0
0
LINE
8
BLACK
10
68609.0
20
66381.0
11
68539.0
21
66311.0
0
LINE
8
BLACK
10
68539.0
20
66311.0
11
68501.0
21
66220.0
0
LINE
8
BLACK
10
68501.0
20
66220.0
11
68501.0
21
66121.0
0
LINE
8
BLACK
10
68501.0
20
66121.0
11
68501.0
21
62621.0
0
LINE
8
BLACK
10
68501.0
20
62621.0
11
68539.0
21
62529.0
0
LINE
8
BLACK
10
68539.0
20
62529.0
11
68609.0
21
62459.0
0
LINE
8
BLACK
10
68609.0
20
62459.0
11
68700.0
21
62421.0
0
LINE
8
BLACK
10
68700.0
20
62421.0
11
68799.0
21
62421.0
0
LINE
8
BLACK
10
68799.0
20
62421.0
11
72299.0
21
62421.0
0
LINE
8
BLACK
10
72299.0
20
62421.0
11
72391.0
21
62459.0
0
LINE
8
BLACK
10
72391.0
20
62459.0
11
72461.0
21
62529.0
0
LINE
8
BLACK
10
72461.0
20
62529.0
11
72499.0
21
62620.0
0
LINE
8
BLACK
10
72499.0
20
62620.0
11
72499.0
21
58969.0
0
LINE
8
BLACK
10
72499.0
20
58969.0
11
72461.0
21
59061.0
0
LINE
8
BLACK
10
72461.0
20
59061.0
11
72391.0
21
59131.0
0
LINE
8
BLACK
10
72391.0
20
59131.0
11
72300.0
21
59169.0
0
LINE
8
BLACK
10
72300.0
20
59169.0
11
72201.0
21
59169.0
0
LINE
8
BLACK
10
72201.0
20
59169.0
11
68701.0
21
59169.0
0
LINE
8
BLACK
10
68701.0
20
59169.0
11
68650.0
21
59148.0
0
LINE
8
BLACK
10
68650.0
20
59148.0
11
68650.0
21
60920.0
0
LINE
8
BLACK
10
68650.0
20
60920.0
11
68650.0
21
61420.0
0
LINE
8
BLACK
10
68650.0
20
61420.0
11
68620.0
21
61573.0
0
LINE
8
BLACK
10
68620.0
20
61573.0
11
68620.0
21
61574.0
0
LINE
8
BLACK
10
68620.0
20
61574.0
11
68533.0
21
61703.0
0
LINE
8
BLACK
10
68533.0
20
61703.0
11
68033.0
21
62203.0
0
LINE
8
BLACK
10
68033.0
20
62203.0
11
67903.0
21
62290.0
0
LINE
8
BLACK
10
67903.0
20
62290.0
11
67750.0
21
62320.0
0
LINE
8
BLACK
10
67750.0
20
62320.0
11
67666.0
21
62320.0
0
LINE
8
BLACK
10
67666.0
20
62320.0
11
65033.0
21
64953.0
0
LINE
8
BLACK
10
65033.0
20
64953.0
11
65029.0
21
64956.0
0
LINE
8
BLACK
10
65029.0
20
64956.0
11
64599.0
21
65387.0
0
LINE
8
BLACK
10
64599.0
20
65387.0
11
64599.0
21
65539.0
0
LINE
8
BLACK
10
64599.0
20
65539.0
11
64508.0
21
65759.0
0
LINE
8
BLACK
10
64508.0
20
65759.0
11
64339.0
21
65928.0
0
LINE
8
BLACK
10
64339.0
20
65928.0
11
64119.0
21
66019.0
0
LINE
8
BLACK
10
64119.0
20
66019.0
11
63881.0
21
66019.0
0
LINE
8
BLACK
10
63881.0
20
66019.0
11
63661.0
21
65928.0
0
LINE
8
BLACK
10
63661.0
20
65928.0
11
63492.0
21
65759.0
0
LINE
8
BLACK
10
63492.0
20
65759.0
11
63401.0
21
65539.0
0
LINE
8
BLACK
10
63401.0
20
65539.0
11
63401.0
21
65301.0
0
LINE
8
BLACK
10
63401.0
20
65301.0
11
63492.0
21
65081.0
0
LINE
8
BLACK
10
63492.0
20
65081.0
11
63653.0
21
64920.0
0
LINE
8
BLACK
10
63653.0
20
64920.0
11
63553.0
21
64820.0
0
LINE
8
BLACK
10
63553.0
20
64820.0
11
63500.0
21
64820.0
0
LINE
8
BLACK
10
63500.0
20
64820.0
11
63347.0
21
64790.0
0
LINE
8
BLACK
10
63347.0
20
64790.0
11
63217.0
21
64703.0
0
LINE
8
BLACK
10
63217.0
20
64703.0
11
63214.0
21
64701.0
0
LINE
8
BLACK
10
63214.0
20
64701.0
11
62967.0
21
64453.0
0
LINE
8
BLACK
10
62967.0
20
64453.0
11
62880.0
21
64323.0
0
LINE
8
BLACK
10
62880.0
20
64323.0
11
62873.0
21
64290.0
0
LINE
8
BLACK
10
62873.0
20
64290.0
11
62798.0
21
64365.0
0
LINE
8
BLACK
10
62798.0
20
64365.0
11
62664.0
21
64421.0
0
LINE
8
BLACK
10
62664.0
20
64421.0
11
62797.0
21
64475.0
0
LINE
8
BLACK
10
62797.0
20
64475.0
11
62945.0
21
64622.0
0
LINE
8
BLACK
10
62945.0
20
64622.0
11
63025.0
21
64815.0
0
LINE
8
BLACK
10
63025.0
20
64815.0
11
63025.0
21
65024.0
0
LINE
8
BLACK
10
63025.0
20
65024.0
11
62945.0
21
65217.0
0
LINE
8
BLACK
10
62945.0
20
65217.0
11
62798.0
21
65365.0
0
LINE
8
BLACK
10
62798.0
20
65365.0
11
62605.0
21
65445.0
0
LINE
8
BLACK
10
62605.0
20
65445.0
11
62396.0
21
65445.0
0
LINE
8
BLACK
10
62396.0
20
65445.0
11
62203.0
21
65365.0
0
LINE
8
BLACK
10
62203.0
20
65365.0
11
62157.0
21
65320.0
0
LINE
8
BLACK
10
62157.0
20
65320.0
11
61500.0
21
65320.0
0
LINE
8
BLACK
10
61500.0
20
65320.0
11
61346.0
21
65290.0
0
LINE
8
BLACK
10
61346.0
20
65290.0
11
61217.0
21
65203.0
0
LINE
8
BLACK
10
61217.0
20
65203.0
11
60717.0
21
64703.0
0
LINE
8
BLACK
10
60717.0
20
64703.0
11
60630.0
21
64573.0
0
LINE
8
BLACK
10
60630.0
20
64573.0
11
60600.0
21
64420.0
0
LINE
8
BLACK
10
60600.0
20
64420.0
11
60600.0
21
61796.0
0
LINE
8
BLACK
10
60600.0
20
61796.0
11
60535.0
21
61731.0
0
LINE
8
BLACK
10
60535.0
20
61731.0
11
60451.0
21
61529.0
0
LINE
8
BLACK
10
60451.0
20
61529.0
11
60451.0
21
61311.0
0
LINE
8
BLACK
10
60451.0
20
61311.0
11
60535.0
21
61109.0
0
LINE
8
BLACK
10
60535.0
20
61109.0
11
60689.0
21
60955.0
0
LINE
8
BLACK
10
60689.0
20
60955.0
11
60891.0
21
60871.0
0
LINE
8
BLACK
10
60891.0
20
60871.0
11
61109.0
21
60871.0
0
LINE
8
BLACK
10
61109.0
20
60871.0
11
61311.0
21
60955.0
0
LINE
8
BLACK
10
61311.0
20
60955.0
11
61465.0
21
61109.0
0
LINE
8
BLACK
10
61465.0
20
61109.0
11
61549.0
21
61311.0
0
LINE
8
BLACK
10
61549.0
20
61311.0
11
61549.0
21
61529.0
0
LINE
8
BLACK
10
61549.0
20
61529.0
11
61465.0
21
61731.0
0
LINE
8
BLACK
10
61465.0
20
61731.0
11
61400.0
21
61796.0
0
LINE
8
BLACK
10
61400.0
20
61796.0
11
61400.0
21
64254.0
0
LINE
8
BLACK
10
61400.0
20
64254.0
11
61666.0
21
64520.0
0
LINE
8
BLACK
10
61666.0
20
64520.0
11
62157.0
21
64520.0
0
LINE
8
BLACK
10
62157.0
20
64520.0
11
62202.0
21
64475.0
0
LINE
8
BLACK
10
62202.0
20
64475.0
11
62335.0
21
64420.0
0
LINE
8
BLACK
10
62335.0
20
64420.0
11
62203.0
21
64365.0
0
LINE
8
BLACK
10
62203.0
20
64365.0
11
62055.0
21
64218.0
0
LINE
8
BLACK
10
62055.0
20
64218.0
11
61975.0
21
64025.0
0
LINE
8
BLACK
10
61975.0
20
64025.0
11
61975.0
21
63816.0
0
LINE
8
BLACK
10
61975.0
20
63816.0
11
62055.0
21
63623.0
0
LINE
8
BLACK
10
62055.0
20
63623.0
11
62202.0
21
63475.0
0
LINE
8
BLACK
10
62202.0
20
63475.0
11
62335.0
21
63420.0
0
LINE
8
BLACK
10
62335.0
20
63420.0
11
62203.0
21
63365.0
0
LINE
8
BLACK
10
62203.0
20
63365.0
11
62055.0
21
63218.0
0
LINE
8
BLACK
10
62055.0
20
63218.0
11
61975.0
21
63025.0
0
LINE
8
BLACK
10
61975.0
20
63025.0
11
61975.0
21
62816.0
0
LINE
8
BLACK
10
61975.0
20
62816.0
11
62055.0
21
62623.0
0
LINE
8
BLACK
10
62055.0
20
62623.0
11
62202.0
21
62475.0
0
LINE
8
BLACK
10
62202.0
20
62475.0
11
62395.0
21
62395.0
0
LINE
8
BLACK
10
62395.0
20
62395.0
11
62604.0
21
62395.0
0
LINE
8
BLACK
10
62604.0
20
62395.0
11
62797.0
21
62475.0
0
LINE
8
BLACK
10
62797.0
20
62475.0
11
62865.0
21
62543.0
0
LINE
8
BLACK
10
62865.0
20
62543.0
11
62903.0
21
62550.0
0
LINE
8
BLACK
10
62903.0
20
62550.0
11
63033.0
21
62637.0
0
LINE
8
BLACK
10
63033.0
20
62637.0
11
63405.0
21
63010.0
0
LINE
8
BLACK
10
63405.0
20
63010.0
11
63439.0
21
62929.0
0
LINE
8
BLACK
10
63439.0
20
62929.0
11
63509.0
21
62859.0
0
LINE
8
BLACK
10
63509.0
20
62859.0
11
63600.0
21
62821.0
0
LINE
8
BLACK
10
63600.0
20
62821.0
11
63699.0
21
62821.0
0
LINE
8
BLACK
10
63699.0
20
62821.0
11
64399.0
21
62821.0
0
LINE
8
BLACK
10
64399.0
20
62821.0
11
64491.0
21
62859.0
0
LINE
8
BLACK
10
64491.0
20
62859.0
11
64561.0
21
62929.0
0
LINE
8
BLACK
10
64561.0
20
62929.0
11
64599.0
21
63020.0
0
LINE
8
BLACK
10
64599.0
20
63020.0
11
65084.0
21
63020.0
0
LINE
8
BLACK
10
65084.0
20
63020.0
11
65577.0
21
62528.0
0
LINE
8
BLACK
10
65577.0
20
62528.0
11
65467.0
21
62453.0
0
LINE
8
BLACK
10
65467.0
20
62453.0
11
64967.0
21
61953.0
0
LINE
8
BLACK
10
64967.0
20
61953.0
11
64880.0
21
61823.0
0
LINE
8
BLACK
10
64880.0
20
61823.0
11
64850.0
21
61670.0
0
LINE
8
BLACK
10
64850.0
20
61670.0
11
64850.0
21
60086.0
0
LINE
8
BLACK
10
64850.0
20
60086.0
11
64084.0
21
59320.0
0
LINE
8
BLACK
10
64084.0
20
59320.0
11
63750.0
21
59320.0
0
LINE
8
BLACK
10
63750.0
20
59320.0
11
63596.0
21
59290.0
0
LINE
8
BLACK
10
63596.0
20
59290.0
11
63467.0
21
59203.0
0
LINE
8
BLACK
10
63467.0
20
59203.0
11
62967.0
21
58703.0
0
LINE
8
BLACK
10
62967.0
20
58703.0
11
62956.0
21
58689.0
0
LINE
8
BLACK
10
62956.0
20
58689.0
11
62945.0
21
58717.0
0
LINE
8
BLACK
10
62945.0
20
58717.0
11
62798.0
21
58865.0
0
LINE
8
BLACK
10
62798.0
20
58865.0
11
62605.0
21
58945.0
0
LINE
8
BLACK
10
62605.0
20
58945.0
11
62396.0
21
58945.0
0
LINE
8
BLACK
10
62396.0
20
58945.0
11
62203.0
21
58865.0
0
LINE
8
BLACK
10
62203.0
20
58865.0
11
62157.0
21
58820.0
0
LINE
8
BLACK
10
62157.0
20
58820.0
11
61666.0
21
58820.0
0
LINE
8
BLACK
10
61666.0
20
58820.0
11
61400.0
21
59086.0
0
LINE
8
BLACK
10
61400.0
20
59086.0
11
61400.0
21
59794.0
0
LINE
8
BLACK
10
61400.0
20
59794.0
11
61465.0
21
59859.0
0
LINE
8
BLACK
10
61465.0
20
59859.0
11
61549.0
21
60061.0
0
LINE
8
BLACK
10
61549.0
20
60061.0
11
61549.0
21
60279.0
0
LINE
8
BLACK
10
61549.0
20
60279.0
11
61465.0
21
60481.0
0
LINE
8
BLACK
10
61465.0
20
60481.0
11
61311.0
21
60635.0
0
LINE
8
BLACK
10
61311.0
20
60635.0
11
61109.0
21
60719.0
0
LINE
8
BLACK
10
61109.0
20
60719.0
11
60891.0
21
60719.0
0
LINE
8
BLACK
10
60891.0
20
60719.0
11
60689.0
21
60635.0
0
LINE
8
BLACK
10
60689.0
20
60635.0
11
60535.0
21
60481.0
0
LINE
8
BLACK
10
60535.0
20
60481.0
11
60451.0
21
60279.0
0
LINE
8
BLACK
10
60451.0
20
60279.0
11
60451.0
21
60061.0
0
LINE
8
BLACK
10
60451.0
20
60061.0
11
60535.0
21
59859.0
0
LINE
8
BLACK
10
60535.0
20
59859.0
11
60600.0
21
59794.0
0
LINE
8
BLACK
10
60600.0
20
59794.0
11
60600.0
21
58920.0
0
LINE
8
BLACK
10
60600.0
20
58920.0
11
60630.0
21
58767.0
0
LINE
8
BLACK
10
60630.0
20
58767.0
11
60717.0
21
58637.0
0
LINE
8
BLACK
10
60717.0
20
58637.0
11
61217.0
21
58137.0
0
LINE
8
BLACK
10
61217.0
20
58137.0
11
61346.0
21
58050.0
0
LINE
8
BLACK
10
61346.0
20
58050.0
11
61347.0
21
58050.0
0
LINE
8
BLACK
10
61347.0
20
58050.0
11
61500.0
21
58020.0
0
LINE
8
BLACK
10
61500.0
20
58020.0
11
62157.0
21
58020.0
0
LINE
8
BLACK
10
62157.0
20
58020.0
11
62202.0
21
57975.0
0
LINE
8
BLACK
10
62202.0
20
57975.0
11
62335.0
21
57920.0
0
LINE
8
BLACK
10
62335.0
20
57920.0
11
62203.0
21
57865.0
0
LINE
8
BLACK
10
62203.0
20
57865.0
11
62055.0
21
57718.0
0
LINE
8
BLACK
10
62055.0
20
57718.0
11
61975.0
21
57525.0
0
LINE
8
BLACK
10
61975.0
20
57525.0
11
61975.0
21
57316.0
0
LINE
8
BLACK
10
61975.0
20
57316.0
11
62055.0
21
57123.0
0
LINE
8
BLACK
10
62055.0
20
57123.0
11
62202.0
21
56975.0
0
LINE
8
BLACK
10
62202.0
20
56975.0
11
62335.0
21
56920.0
0
LINE
8
BLACK
10
62335.0
20
56920.0
11
62203.0
21
56865.0
0
LINE
8
BLACK
10
62203.0
20
56865.0
11
62055.0
21
56718.0
0
LINE
8
BLACK
10
62055.0
20
56718.0
11
61975.0
21
56525.0
0
LINE
8
BLACK
10
61975.0
20
56525.0
11
61975.0
21
56316.0
0
LINE
8
BLACK
10
61975.0
20
56316.0
11
62055.0
21
56123.0
0
LINE
8
BLACK
10
62055.0
20
56123.0
11
62202.0
21
55975.0
0
LINE
8
BLACK
10
62202.0
20
55975.0
11
62395.0
21
55895.0
0
LINE
8
BLACK
10
62395.0
20
55895.0
11
62459.0
21
55895.0
0
LINE
8
BLACK
10
62459.0
20
55895.0
11
63217.0
21
55137.0
0
LINE
8
BLACK
10
63217.0
20
55137.0
11
63346.0
21
55050.0
0
LINE
8
BLACK
10
63346.0
20
55050.0
11
63347.0
21
55050.0
0
LINE
8
BLACK
10
63347.0
20
55050.0
11
63500.0
21
55020.0
0
LINE
8
BLACK
10
63500.0
20
55020.0
11
64500.0
21
55020.0
0
LINE
8
BLACK
10
64500.0
20
55020.0
11
64653.0
21
55050.0
0
LINE
8
BLACK
10
64653.0
20
55050.0
11
64783.0
21
55137.0
0
LINE
8
BLACK
10
64783.0
20
55137.0
11
65030.0
21
55385.0
0
LINE
8
BLACK
10
65030.0
20
55385.0
11
65032.0
21
55387.0
0
LINE
8
BLACK
10
65032.0
20
55387.0
11
65033.0
21
55387.0
0
LINE
8
BLACK
10
65033.0
20
55387.0
11
65119.0
21
55516.0
0
LINE
8
BLACK
10
65119.0
20
55516.0
11
65120.0
21
55517.0
0
LINE
8
BLACK
10
65120.0
20
55517.0
11
65150.0
21
55670.0
0
LINE
8
BLACK
10
65150.0
20
55670.0
11
65150.0
21
56670.0
0
LINE
8
BLACK
10
65150.0
20
56670.0
11
65120.0
21
56823.0
0
LINE
8
BLACK
10
65120.0
20
56823.0
11
65120.0
21
56824.0
0
LINE
8
BLACK
10
65120.0
20
56824.0
11
65033.0
21
56953.0
0
LINE
8
BLACK
10
65033.0
20
56953.0
11
64533.0
21
57453.0
0
LINE
8
BLACK
10
64533.0
20
57453.0
11
64530.0
21
57455.0
0
LINE
8
BLACK
10
64530.0
20
57455.0
11
64508.0
21
57509.0
0
LINE
8
BLACK
10
64508.0
20
57509.0
11
64347.0
21
57670.0
0
LINE
8
BLACK
10
64347.0
20
57670.0
11
64508.0
21
57831.0
0
LINE
8
BLACK
10
64508.0
20
57831.0
11
64530.0
21
57886.0
0
LINE
8
BLACK
10
64530.0
20
57886.0
11
64533.0
21
57887.0
0
LINE
8
BLACK
10
64533.0
20
57887.0
11
66279.0
21
59635.0
0
LINE
8
BLACK
10
66279.0
20
59635.0
11
66282.0
21
59637.0
0
LINE
8
BLACK
10
66282.0
20
59637.0
11
66283.0
21
59637.0
0
LINE
8
BLACK
10
66283.0
20
59637.0
11
66362.0
21
59757.0
0
LINE
8
BLACK
10
66362.0
20
59757.0
11
66363.0
21
59758.0
0
LINE
8
BLACK
10
66363.0
20
59758.0
11
66465.0
21
59859.0
0
LINE
8
BLACK
10
66465.0
20
59859.0
11
66549.0
21
60061.0
0
LINE
8
BLACK
10
66549.0
20
60061.0
11
66549.0
21
60279.0
0
LINE
8
BLACK
10
66549.0
20
60279.0
11
66530.0
21
60325.0
0
LINE
8
BLACK
10
66530.0
20
60325.0
11
66951.0
21
59904.0
0
LINE
8
BLACK
10
66951.0
20
59904.0
11
66951.0
21
59821.0
0
LINE
8
BLACK
10
66951.0
20
59821.0
11
66989.0
21
59729.0
0
LINE
8
BLACK
10
66989.0
20
59729.0
11
67059.0
21
59659.0
0
LINE
8
BLACK
10
67059.0
20
59659.0
11
67150.0
21
59621.0
0
LINE
8
BLACK
10
67150.0
20
59621.0
11
67249.0
21
59621.0
0
LINE
8
BLACK
10
67249.0
20
59621.0
11
67849.0
21
59621.0
0
LINE
8
BLACK
10
67849.0
20
59621.0
11
67941.0
21
59659.0
0
LINE
8
BLACK
10
67941.0
20
59659.0
11
68011.0
21
59729.0
0
LINE
8
BLACK
10
68011.0
20
59729.0
11
68049.0
21
59820.0
0
LINE
8
BLACK
10
68049.0
20
59820.0
11
68049.0
21
59919.0
0
LINE
8
BLACK
10
68049.0
20
59919.0
11
68049.0
21
60154.0
0
LINE
8
BLACK
10
68049.0
20
60154.0
11
68529.0
21
60635.0
0
LINE
8
BLACK
10
68529.0
20
60635.0
11
68532.0
21
60637.0
0
LINE
8
BLACK
10
68532.0
20
60637.0
11
68533.0
21
60637.0
0
LINE
8
BLACK
10
68533.0
20
60637.0
11
68619.0
21
60766.0
0
LINE
8
BLACK
10
68619.0
20
60766.0
11
68620.0
21
60767.0
0
LINE
8
BLACK
10
68620.0
20
60767.0
11
68650.0
21
60920.0
0
LINE
8
BLACK
10
68650.0
20
60920.0
11
68650.0
21
59148.0
0
LINE
8
BLACK
10
68650.0
20
59148.0
11
68609.0
21
59131.0
0
LINE
8
BLACK
10
68609.0
20
59131.0
11
68539.0
21
59061.0
0
LINE
8
BLACK
10
68539.0
20
59061.0
11
68501.0
21
58970.0
0
LINE
8
BLACK
10
68501.0
20
58970.0
11
68501.0
21
58871.0
0
LINE
8
BLACK
10
68501.0
20
58871.0
11
68501.0
21
55371.0
0
LINE
8
BLACK
10
68501.0
20
55371.0
11
68539.0
21
55279.0
0
LINE
8
BLACK
10
68539.0
20
55279.0
11
68609.0
21
55209.0
0
LINE
8
BLACK
10
68609.0
20
55209.0
11
68700.0
21
55171.0
0
LINE
8
BLACK
10
68700.0
20
55171.0
11
68799.0
21
55171.0
0
LINE
8
BLACK
10
68799.0
20
55171.0
11
72299.0
21
55171.0
0
LINE
8
BLACK
10
72299.0
20
55171.0
11
72391.0
21
55209.0
0
LINE
8
BLACK
10
72391.0
20
55209.0
11
72461.0
21
55279.0
0
LINE
8
BLACK
10
72461.0
20
55279.0
11
72499.0
21
55370.0
0
LINE
8
BLACK
10
72499.0
20
55370.0
11
72499.0
21
53995.0
0
LINE
8
BLACK
10
72499.0
20
53995.0
11
60025.0
21
53995.0
0
LINE
8
BLACK
10
60025.0
20
53995.0
11
60025.0
21
56315.0
0
LINE
8
BLACK
10
60025.0
20
56315.0
11
60025.0
21
56524.0
0
LINE
8
BLACK
10
60025.0
20
56524.0
11
60025.0
21
62815.0
0
LINE
8
BLACK
10
60025.0
20
62815.0
11
60025.0
21
63024.0
0
LINE
8
BLACK
10
60025.0
20
63024.0
11
60024.0
21
63027.0
0
LINE
8
BLACK
10
60024.0
20
63027.0
11
60024.0
21
64595.0
0
LINE
8
BLACK
10
60024.0
20
64595.0
11
60024.0
21
64694.0
0
LINE
8
BLACK
10
60024.0
20
64694.0
11
60024.0
21
65244.0
0
LINE
8
BLACK
10
60024.0
20
65244.0
11
59986.0
21
65336.0
0
LINE
8
BLACK
10
59986.0
20
65336.0
11
59916.0
21
65406.0
0
LINE
8
BLACK
10
59916.0
20
65406.0
11
59825.0
21
65444.0
0
LINE
8
BLACK
10
59825.0
20
65444.0
11
59726.0
21
65444.0
0
LINE
8
BLACK
10
59726.0
20
65444.0
11
59176.0
21
65444.0
0
LINE
8
BLACK
10
59176.0
20
65444.0
11
59084.0
21
65406.0
0
LINE
8
BLACK
10
59084.0
20
65406.0
11
59014.0
21
65336.0
0
LINE
8
BLACK
10
59014.0
20
65336.0
11
59007.0
21
65320.0
0
LINE
8
BLACK
10
59007.0
20
65320.0
11
58666.0
21
65320.0
0
LINE
8
BLACK
10
58666.0
20
65320.0
11
57900.0
21
66086.0
0
LINE
8
BLACK
10
57900.0
20
66086.0
11
57900.0
21
66544.0
0
LINE
8
BLACK
10
57900.0
20
66544.0
11
57965.0
21
66609.0
0
LINE
8
BLACK
10
57965.0
20
66609.0
11
58049.0
21
66811.0
0
LINE
8
BLACK
10
58049.0
20
66811.0
11
58049.0
21
67029.0
0
LINE
8
BLACK
10
58049.0
20
67029.0
11
57965.0
21
67231.0
0
LINE
8
BLACK
10
57965.0
20
67231.0
11
57811.0
21
67385.0
0
LINE
8
BLACK
10
57811.0
20
67385.0
11
57609.0
21
67469.0
0
LINE
8
BLACK
10
57609.0
20
67469.0
11
57391.0
21
67469.0
0
LINE
8
BLACK
10
57391.0
20
67469.0
11
57189.0
21
67385.0
0
LINE
8
BLACK
10
57189.0
20
67385.0
11
57035.0
21
67231.0
0
LINE
8
BLACK
10
57035.0
20
67231.0
11
56951.0
21
67029.0
0
LINE
8
BLACK
10
56951.0
20
67029.0
11
56951.0
21
66811.0
0
LINE
8
BLACK
10
56951.0
20
66811.0
11
57035.0
21
66609.0
0
LINE
8
BLACK
10
57035.0
20
66609.0
11
57100.0
21
66544.0
0
LINE
8
BLACK
10
57100.0
20
66544.0
11
57100.0
21
65920.0
0
LINE
8
BLACK
10
57100.0
20
65920.0
11
57130.0
21
65767.0
0
LINE
8
BLACK
10
57130.0
20
65767.0
11
57217.0
21
65637.0
0
LINE
8
BLACK
10
57217.0
20
65637.0
11
58217.0
21
64637.0
0
LINE
8
BLACK
10
58217.0
20
64637.0
11
58346.0
21
64550.0
0
LINE
8
BLACK
10
58346.0
20
64550.0
11
58347.0
21
64550.0
0
LINE
8
BLACK
10
58347.0
20
64550.0
11
58500.0
21
64520.0
0
LINE
8
BLACK
10
58500.0
20
64520.0
11
59007.0
21
64520.0
0
LINE
8
BLACK
10
59007.0
20
64520.0
11
59014.0
21
64504.0
0
LINE
8
BLACK
10
59014.0
20
64504.0
11
59084.0
21
64434.0
0
LINE
8
BLACK
10
59084.0
20
64434.0
11
59175.0
21
64396.0
0
LINE
8
BLACK
10
59175.0
20
64396.0
11
59274.0
21
64396.0
0
LINE
8
BLACK
10
59274.0
20
64396.0
11
59291.0
21
64396.0
0
LINE
8
BLACK
10
59291.0
20
64396.0
11
59233.0
21
64372.0
0
LINE
8
BLACK
10
59233.0
20
64372.0
11
59210.0
21
64281.0
0
LINE
8
BLACK
10
59210.0
20
64281.0
11
59500.0
21
63991.0
0
LINE
8
BLACK
10
59500.0
20
63991.0
11
59790.0
21
64281.0
0
LINE
8
BLACK
10
59790.0
20
64281.0
11
59767.0
21
64372.0
0
LINE
8
BLACK
10
59767.0
20
64372.0
11
59697.0
21
64396.0
0
LINE
8
BLACK
10
59697.0
20
64396.0
11
59824.0
21
64396.0
0
LINE
8
BLACK
10
59824.0
20
64396.0
11
59916.0
21
64434.0
0
LINE
8
BLACK
10
59916.0
20
64434.0
11
59986.0
21
64504.0
0
LINE
8
BLACK
10
59986.0
20
64504.0
11
60024.0
21
64595.0
0
LINE
8
BLACK
10
60024.0
20
64595.0
11
60024.0
21
63027.0
0
LINE
8
BLACK
10
60024.0
20
63027.0
11
60019.0
21
63039.0
0
LINE
8
BLACK
10
60019.0
20
63039.0
11
60019.0
21
63846.0
0
LINE
8
BLACK
10
60019.0
20
63846.0
11
60008.0
21
64050.0
0
LINE
8
BLACK
10
60008.0
20
64050.0
11
59952.0
21
64187.0
0
LINE
8
BLACK
10
59952.0
20
64187.0
11
59861.0
21
64210.0
0
LINE
8
BLACK
10
59861.0
20
64210.0
11
59571.0
21
63920.0
0
LINE
8
BLACK
10
59571.0
20
63920.0
11
59861.0
21
63630.0
0
LINE
8
BLACK
10
59861.0
20
63630.0
11
59952.0
21
63653.0
0
LINE
8
BLACK
10
59952.0
20
63653.0
11
60019.0
21
63846.0
0
LINE
8
BLACK
10
60019.0
20
63846.0
11
60019.0
21
63039.0
0
LINE
8
BLACK
10
60019.0
20
63039.0
11
59945.0
21
63217.0
0
LINE
8
BLACK
10
59945.0
20
63217.0
11
59798.0
21
63365.0
0
LINE
8
BLACK
10
59798.0
20
63365.0
11
59657.0
21
63424.0
0
LINE
8
BLACK
10
59657.0
20
63424.0
11
59767.0
21
63468.0
0
LINE
8
BLACK
10
59767.0
20
63468.0
11
59790.0
21
63559.0
0
LINE
8
BLACK
10
59790.0
20
63559.0
11
59500.0
21
63849.0
0
LINE
8
BLACK
10
59500.0
20
63849.0
11
59429.0
21
63778.0
0
LINE
8
BLACK
10
59429.0
20
63778.0
11
59429.0
21
63920.0
0
LINE
8
BLACK
10
59429.0
20
63920.0
11
59139.0
21
64210.0
0
LINE
8
BLACK
10
59139.0
20
64210.0
11
59048.0
21
64187.0
0
LINE
8
BLACK
10
59048.0
20
64187.0
11
58981.0
21
63994.0
0
LINE
8
BLACK
10
58981.0
20
63994.0
11
58992.0
21
63790.0
0
LINE
8
BLACK
10
58992.0
20
63790.0
11
59048.0
21
63653.0
0
LINE
8
BLACK
10
59048.0
20
63653.0
11
59139.0
21
63630.0
0
LINE
8
BLACK
10
59139.0
20
63630.0
11
59429.0
21
63920.0
0
LINE
8
BLACK
10
59429.0
20
63920.0
11
59429.0
21
63778.0
0
LINE
8
BLACK
10
59429.0
20
63778.0
11
59210.0
21
63559.0
0
LINE
8
BLACK
10
59210.0
20
63559.0
11
59233.0
21
63468.0
0
LINE
8
BLACK
10
59233.0
20
63468.0
11
59351.0
21
63427.0
0
LINE
8
BLACK
10
59351.0
20
63427.0
11
59203.0
21
63365.0
0
LINE
8
BLACK
10
59203.0
20
63365.0
11
59055.0
21
63218.0
0
LINE
8
BLACK
10
59055.0
20
63218.0
11
58975.0
21
63025.0
0
LINE
8
BLACK
10
58975.0
20
63025.0
11
58975.0
21
62816.0
0
LINE
8
BLACK
10
58975.0
20
62816.0
11
59055.0
21
62623.0
0
LINE
8
BLACK
10
59055.0
20
62623.0
11
59202.0
21
62475.0
0
LINE
8
BLACK
10
59202.0
20
62475.0
11
59395.0
21
62395.0
0
LINE
8
BLACK
10
59395.0
20
62395.0
11
59604.0
21
62395.0
0
LINE
8
BLACK
10
59604.0
20
62395.0
11
59797.0
21
62475.0
0
LINE
8
BLACK
10
59797.0
20
62475.0
11
59945.0
21
62622.0
0
LINE
8
BLACK
10
59945.0
20
62622.0
11
60025.0
21
62815.0
0
LINE
8
BLACK
10
60025.0
20
62815.0
11
60025.0
21
56524.0
0
LINE
8
BLACK
10
60025.0
20
56524.0
11
60024.0
21
56527.0
0
LINE
8
BLACK
10
60024.0
20
56527.0
11
60024.0
21
58095.0
0
LINE
8
BLACK
10
60024.0
20
58095.0
11
60024.0
21
58194.0
0
LINE
8
BLACK
10
60024.0
20
58194.0
11
60024.0
21
58744.0
0
LINE
8
BLACK
10
60024.0
20
58744.0
11
59986.0
21
58836.0
0
LINE
8
BLACK
10
59986.0
20
58836.0
11
59916.0
21
58906.0
0
LINE
8
BLACK
10
59916.0
20
58906.0
11
59825.0
21
58944.0
0
LINE
8
BLACK
10
59825.0
20
58944.0
11
59726.0
21
58944.0
0
LINE
8
BLACK
10
59726.0
20
58944.0
11
59176.0
21
58944.0
0
LINE
8
BLACK
10
59176.0
20
58944.0
11
59084.0
21
58906.0
0
LINE
8
BLACK
10
59084.0
20
58906.0
11
59014.0
21
58836.0
0
LINE
8
BLACK
10
59014.0
20
58836.0
11
59007.0
21
58820.0
0
LINE
8
BLACK
10
59007.0
20
58820.0
11
58500.0
21
58820.0
0
LINE
8
BLACK
10
58500.0
20
58820.0
11
58346.0
21
58790.0
0
LINE
8
BLACK
10
58346.0
20
58790.0
11
58217.0
21
58703.0
0
LINE
8
BLACK
10
58217.0
20
58703.0
11
58049.0
21
58535.0
0
LINE
8
BLACK
10
58049.0
20
58535.0
11
58049.0
21
59811.0
0
LINE
8
BLACK
10
58049.0
20
59811.0
11
58049.0
21
60029.0
0
LINE
8
BLACK
10
58049.0
20
60029.0
11
58049.0
21
61811.0
0
LINE
8
BLACK
10
58049.0
20
61811.0
11
58049.0
21
62029.0
0
LINE
8
BLACK
10
58049.0
20
62029.0
11
57965.0
21
62231.0
0
LINE
8
BLACK
10
57965.0
20
62231.0
11
57811.0
21
62385.0
0
LINE
8
BLACK
10
57811.0
20
62385.0
11
57609.0
21
62469.0
0
LINE
8
BLACK
10
57609.0
20
62469.0
11
57391.0
21
62469.0
0
LINE
8
BLACK
10
57391.0
20
62469.0
11
57189.0
21
62385.0
0
LINE
8
BLACK
10
57189.0
20
62385.0
11
57124.0
21
62320.0
0
LINE
8
BLACK
10
57124.0
20
62320.0
11
56527.0
21
62320.0
0
LINE
8
BLACK
10
56527.0
20
62320.0
11
56511.0
21
62361.0
0
LINE
8
BLACK
10
56511.0
20
62361.0
11
56441.0
21
62431.0
0
LINE
8
BLACK
10
56441.0
20
62431.0
11
56350.0
21
62469.0
0
LINE
8
BLACK
10
56350.0
20
62469.0
11
56251.0
21
62469.0
0
LINE
8
BLACK
10
56251.0
20
62469.0
11
55651.0
21
62469.0
0
LINE
8
BLACK
10
55651.0
20
62469.0
11
55559.0
21
62431.0
0
LINE
8
BLACK
10
55559.0
20
62431.0
11
55489.0
21
62361.0
0
LINE
8
BLACK
10
55489.0
20
62361.0
11
55451.0
21
62270.0
0
LINE
8
BLACK
10
55451.0
20
62270.0
11
55451.0
21
62171.0
0
LINE
8
BLACK
10
55451.0
20
62171.0
11
55451.0
21
61571.0
0
LINE
8
BLACK
10
55451.0
20
61571.0
11
55489.0
21
61479.0
0
LINE
8
BLACK
10
55489.0
20
61479.0
11
55559.0
21
61409.0
0
LINE
8
BLACK
10
55559.0
20
61409.0
11
55650.0
21
61371.0
0
LINE
8
BLACK
10
55650.0
20
61371.0
11
55712.0
21
61371.0
0
LINE
8
BLACK
10
55712.0
20
61371.0
11
55692.0
21
61298.0
0
LINE
8
BLACK
10
55692.0
20
61298.0
11
56000.0
21
60991.0
0
LINE
8
BLACK
10
56000.0
20
60991.0
11
56308.0
21
61298.0
0
LINE
8
BLACK
10
56308.0
20
61298.0
11
56287.0
21
61371.0
0
LINE
8
BLACK
10
56287.0
20
61371.0
11
56349.0
21
61371.0
0
LINE
8
BLACK
10
56349.0
20
61371.0
11
56441.0
21
61409.0
0
LINE
8
BLACK
10
56441.0
20
61409.0
11
56511.0
21
61479.0
0
LINE
8
BLACK
10
56511.0
20
61479.0
11
56528.0
21
61520.0
0
LINE
8
BLACK
10
56528.0
20
61520.0
11
57124.0
21
61520.0
0
LINE
8
BLACK
10
57124.0
20
61520.0
11
57189.0
21
61455.0
0
LINE
8
BLACK
10
57189.0
20
61455.0
11
57391.0
21
61371.0
0
LINE
8
BLACK
10
57391.0
20
61371.0
11
57609.0
21
61371.0
0
LINE
8
BLACK
10
57609.0
20
61371.0
11
57811.0
21
61455.0
0
LINE
8
BLACK
10
57811.0
20
61455.0
11
57965.0
21
61609.0
0
LINE
8
BLACK
10
57965.0
20
61609.0
11
58049.0
21
61811.0
0
LINE
8
BLACK
10
58049.0
20
61811.0
11
58049.0
21
60029.0
0
LINE
8
BLACK
10
58049.0
20
60029.0
11
57965.0
21
60231.0
0
LINE
8
BLACK
10
57965.0
20
60231.0
11
57811.0
21
60385.0
0
LINE
8
BLACK
10
57811.0
20
60385.0
11
57609.0
21
60469.0
0
LINE
8
BLACK
10
57609.0
20
60469.0
11
57391.0
21
60469.0
0
LINE
8
BLACK
10
57391.0
20
60469.0
11
57189.0
21
60385.0
0
LINE
8
BLACK
10
57189.0
20
60385.0
11
57124.0
21
60320.0
0
LINE
8
BLACK
10
57124.0
20
60320.0
11
56543.0
21
60320.0
0
LINE
8
BLACK
10
56543.0
20
60320.0
11
56543.0
21
60841.0
0
LINE
8
BLACK
10
56543.0
20
60841.0
11
56532.0
21
61054.0
0
LINE
8
BLACK
10
56532.0
20
61054.0
11
56472.0
21
61201.0
0
LINE
8
BLACK
10
56472.0
20
61201.0
11
56378.0
21
61228.0
0
LINE
8
BLACK
10
56378.0
20
61228.0
11
56071.0
21
60920.0
0
LINE
8
BLACK
10
56071.0
20
60920.0
11
56378.0
21
60612.0
0
LINE
8
BLACK
10
56378.0
20
60612.0
11
56472.0
21
60639.0
0
LINE
8
BLACK
10
56472.0
20
60639.0
11
56543.0
21
60841.0
0
LINE
8
BLACK
10
56543.0
20
60841.0
11
56543.0
21
60320.0
0
LINE
8
BLACK
10
56543.0
20
60320.0
11
56376.0
21
60320.0
0
LINE
8
BLACK
10
56376.0
20
60320.0
11
56311.0
21
60385.0
0
LINE
8
BLACK
10
56311.0
20
60385.0
11
56219.0
21
60423.0
0
LINE
8
BLACK
10
56219.0
20
60423.0
11
56281.0
21
60448.0
0
LINE
8
BLACK
10
56281.0
20
60448.0
11
56308.0
21
60542.0
0
LINE
8
BLACK
10
56308.0
20
60542.0
11
56000.0
21
60849.0
0
LINE
8
BLACK
10
56000.0
20
60849.0
11
55929.0
21
60779.0
0
LINE
8
BLACK
10
55929.0
20
60779.0
11
55929.0
21
60920.0
0
LINE
8
BLACK
10
55929.0
20
60920.0
11
55622.0
21
61228.0
0
LINE
8
BLACK
10
55622.0
20
61228.0
11
55528.0
21
61201.0
0
LINE
8
BLACK
10
55528.0
20
61201.0
11
55457.0
21
60999.0
0
LINE
8
BLACK
10
55457.0
20
60999.0
11
55468.0
21
60786.0
0
LINE
8
BLACK
10
55468.0
20
60786.0
11
55528.0
21
60639.0
0
LINE
8
BLACK
10
55528.0
20
60639.0
11
55622.0
21
60612.0
0
LINE
8
BLACK
10
55622.0
20
60612.0
11
55929.0
21
60920.0
0
LINE
8
BLACK
10
55929.0
20
60920.0
11
55929.0
21
60779.0
0
LINE
8
BLACK
10
55929.0
20
60779.0
11
55692.0
21
60542.0
0
LINE
8
BLACK
10
55692.0
20
60542.0
11
55719.0
21
60448.0
0
LINE
8
BLACK
10
55719.0
20
60448.0
11
55784.0
21
60425.0
0
LINE
8
BLACK
10
55784.0
20
60425.0
11
55689.0
21
60385.0
0
LINE
8
BLACK
10
55689.0
20
60385.0
11
55535.0
21
60231.0
0
LINE
8
BLACK
10
55535.0
20
60231.0
11
55451.0
21
60029.0
0
LINE
8
BLACK
10
55451.0
20
60029.0
11
55451.0
21
59811.0
0
LINE
8
BLACK
10
55451.0
20
59811.0
11
55535.0
21
59609.0
0
LINE
8
BLACK
10
55535.0
20
59609.0
11
55689.0
21
59455.0
0
LINE
8
BLACK
10
55689.0
20
59455.0
11
55891.0
21
59371.0
0
LINE
8
BLACK
10
55891.0
20
59371.0
11
56109.0
21
59371.0
0
LINE
8
BLACK
10
56109.0
20
59371.0
11
56311.0
21
59455.0
0
LINE
8
BLACK
10
56311.0
20
59455.0
11
56376.0
21
59520.0
0
LINE
8
BLACK
10
56376.0
20
59520.0
11
57124.0
21
59520.0
0
LINE
8
BLACK
10
57124.0
20
59520.0
11
57189.0
21
59455.0
0
LINE
8
BLACK
10
57189.0
20
59455.0
11
57391.0
21
59371.0
0
LINE
8
BLACK
10
57391.0
20
59371.0
11
57609.0
21
59371.0
0
LINE
8
BLACK
10
57609.0
20
59371.0
11
57811.0
21
59455.0
0
LINE
8
BLACK
10
57811.0
20
59455.0
11
57965.0
21
59609.0
0
LINE
8
BLACK
10
57965.0
20
59609.0
11
58049.0
21
59811.0
0
LINE
8
BLACK
10
58049.0
20
59811.0
11
58049.0
21
58535.0
0
LINE
8
BLACK
10
58049.0
20
58535.0
11
57217.0
21
57703.0
0
LINE
8
BLACK
10
57217.0
20
57703.0
11
57130.0
21
57573.0
0
LINE
8
BLACK
10
57130.0
20
57573.0
11
57100.0
21
57420.0
0
LINE
8
BLACK
10
57100.0
20
57420.0
11
57100.0
21
55296.0
0
LINE
8
BLACK
10
57100.0
20
55296.0
11
57035.0
21
55231.0
0
LINE
8
BLACK
10
57035.0
20
55231.0
11
56951.0
21
55029.0
0
LINE
8
BLACK
10
56951.0
20
55029.0
11
56951.0
21
54811.0
0
LINE
8
BLACK
10
56951.0
20
54811.0
11
57035.0
21
54609.0
0
LINE
8
BLACK
10
57035.0
20
54609.0
11
57189.0
21
54455.0
0
LINE
8
BLACK
10
57189.0
20
54455.0
11
57391.0
21
54371.0
0
LINE
8
BLACK
10
57391.0
20
54371.0
11
57609.0
21
54371.0
0
LINE
8
BLACK
10
57609.0
20
54371.0
11
57811.0
21
54455.0
0
LINE
8
BLACK
10
57811.0
20
54455.0
11
57965.0
21
54609.0
0
LINE
8
BLACK
10
57965.0
20
54609.0
11
58049.0
21
54811.0
0
LINE
8
BLACK
10
58049.0
20
54811.0
11
58049.0
21
55029.0
0
LINE
8
BLACK
10
58049.0
20
55029.0
11
57965.0
21
55231.0
0
LINE
8
BLACK
10
57965.0
20
55231.0
11
57900.0
21
55296.0
0
LINE
8
BLACK
10
57900.0
20
55296.0
11
57900.0
21
57254.0
0
LINE
8
BLACK
10
57900.0
20
57254.0
11
58666.0
21
58020.0
0
LINE
8
BLACK
10
58666.0
20
58020.0
11
59007.0
21
58020.0
0
LINE
8
BLACK
10
59007.0
20
58020.0
11
59014.0
21
58004.0
0
LINE
8
BLACK
10
59014.0
20
58004.0
11
59084.0
21
57934.0
0
LINE
8
BLACK
10
59084.0
20
57934.0
11
59175.0
21
57896.0
0
LINE
8
BLACK
10
59175.0
20
57896.0
11
59274.0
21
57896.0
0
LINE
8
BLACK
10
59274.0
20
57896.0
11
59291.0
21
57896.0
0
LINE
8
BLACK
10
59291.0
20
57896.0
11
59233.0
21
57872.0
0
LINE
8
BLACK
10
59233.0
20
57872.0
11
59210.0
21
57781.0
0
LINE
8
BLACK
10
59210.0
20
57781.0
11
59500.0
21
57491.0
0
LINE
8
BLACK
10
59500.0
20
57491.0
11
59790.0
21
57781.0
0
LINE
8
BLACK
10
59790.0
20
57781.0
11
59767.0
21
57872.0
0
LINE
8
BLACK
10
59767.0
20
57872.0
11
59697.0
21
57896.0
0
LINE
8
BLACK
10
59697.0
20
57896.0
11
59824.0
21
57896.0
0
LINE
8
BLACK
10
59824.0
20
57896.0
11
59916.0
21
57934.0
0
LINE
8
BLACK
10
59916.0
20
57934.0
11
59986.0
21
58004.0
0
LINE
8
BLACK
10
59986.0
20
58004.0
11
60024.0
21
58095.0
0
LINE
8
BLACK
10
60024.0
20
58095.0
11
60024.0
21
56527.0
0
LINE
8
BLACK
10
60024.0
20
56527.0
11
60019.0
21
56539.0
0
LINE
8
BLACK
10
60019.0
20
56539.0
11
60019.0
21
57346.0
0
LINE
8
BLACK
10
60019.0
20
57346.0
11
60008.0
21
57550.0
0
LINE
8
BLACK
10
60008.0
20
57550.0
11
59952.0
21
57687.0
0
LINE
8
BLACK
10
59952.0
20
57687.0
11
59861.0
21
57710.0
0
LINE
8
BLACK
10
59861.0
20
57710.0
11
59571.0
21
57420.0
0
LINE
8
BLACK
10
59571.0
20
57420.0
11
59861.0
21
57130.0
0
LINE
8
BLACK
10
59861.0
20
57130.0
11
59952.0
21
57153.0
0
LINE
8
BLACK
10
59952.0
20
57153.0
11
60019.0
21
57346.0
0
LINE
8
BLACK
10
60019.0
20
57346.0
11
60019.0
21
56539.0
0
LINE
8
BLACK
10
60019.0
20
56539.0
11
59945.0
21
56717.0
0
LINE
8
BLACK
10
59945.0
20
56717.0
11
59798.0
21
56865.0
0
LINE
8
BLACK
10
59798.0
20
56865.0
11
59657.0
21
56924.0
0
LINE
8
BLACK
10
59657.0
20
56924.0
11
59767.0
21
56968.0
0
LINE
8
BLACK
10
59767.0
20
56968.0
11
59790.0
21
57059.0
0
LINE
8
BLACK
10
59790.0
20
57059.0
11
59500.0
21
57349.0
0
LINE
8
BLACK
10
59500.0
20
57349.0
11
59429.0
21
57278.0
0
LINE
8
BLACK
10
59429.0
20
57278.0
11
59429.0
21
57420.0
0
LINE
8
BLACK
10
59429.0
20
57420.0
11
59139.0
21
57710.0
0
LINE
8
BLACK
10
59139.0
20
57710.0
11
59048.0
21
57687.0
0
LINE
8
BLACK
10
59048.0
20
57687.0
11
58981.0
21
57494.0
0
LINE
8
BLACK
10
58981.0
20
57494.0
11
58992.0
21
57290.0
0
LINE
8
BLACK
10
58992.0
20
57290.0
11
59048.0
21
57153.0
0
LINE
8
BLACK
10
59048.0
20
57153.0
11
59139.0
21
57130.0
0
LINE
8
BLACK
10
59139.0
20
57130.0
11
59429.0
21
57420.0
0
LINE
8
BLACK
10
59429.0
20
57420.0
11
59429.0
21
57278.0
0
LINE
8
BLACK
10
59429.0
20
57278.0
11
59210.0
21
57059.0
0
LINE
8
BLACK
10
59210.0
20
57059.0
11
59233.0
21
56968.0
0
LINE
8
BLACK
10
59233.0
20
56968.0
11
59351.0
21
56927.0
0
LINE
8
BLACK
10
59351.0
20
56927.0
11
59203.0
21
56865.0
0
LINE
8
BLACK
10
59203.0
20
56865.0
11
59055.0
21
56718.0
0
LINE
8
BLACK
10
59055.0
20
56718.0
11
58975.0
21
56525.0
0
LINE
8
BLACK
10
58975.0
20
56525.0
11
58975.0
21
56316.0
0
LINE
8
BLACK
10
58975.0
20
56316.0
11
59055.0
21
56123.0
0
LINE
8
BLACK
10
59055.0
20
56123.0
11
59202.0
21
55975.0
0
LINE
8
BLACK
10
59202.0
20
55975.0
11
59395.0
21
55895.0
0
LINE
8
BLACK
10
59395.0
20
55895.0
11
59604.0
21
55895.0
0
LINE
8
BLACK
10
59604.0
20
55895.0
11
59797.0
21
55975.0
0
LINE
8
BLACK
10
59797.0
20
55975.0
11
59945.0
21
56122.0
0
LINE
8
BLACK
10
59945.0
20
56122.0
11
60025.0
21
56315.0
0
LINE
8
BLACK
10
60025.0
20
56315.0
11
60025.0
21
53995.0
0
LINE
8
BLACK
10
60025.0
20
53995.0
11
55075.0
21
53995.0
0
LINE
8
BLACK
10
55075.0
20
53995.0
11
55075.0
21
67845.0
0
LINE
8
BLACK
10
55075.0
20
67845.0
11
72675.0
21
67845.0
0
LINE
8
BLACK
10
72675.0
20
67845.0
11
72675.0
21
53995.0
0
LINE
8
BLACK
10
72675.0
20
53995.0
11
72499.0
21
53995.0
0
LINE
8
BLACK
10
72499.0
20
53995.0
11
72499.0
21
55370.0
0
LINE
8
BLACK
10
72499.0
20
55370.0
11
72499.0
21
55469.0
0
LINE
8
BLACK
10
72499.0
20
55469.0
11
72499.0
21
58969.0
0
LINE
8
BLACK
10
72499.0
20
58969.0
11
72499.0
21
62620.0
0
LINE
8
BLACK
10
72499.0
20
62620.0
11
72499.0
21
62719.0
0
LINE
8
BLACK
10
72499.0
20
62719.0
11
72499.0
21
66219.0
0
LINE
8
BLACK
10
72499.0
20
66219.0
11
72461.0
21
66311.0
0
LINE
8
BLACK
10
72461.0
20
66311.0
11
72391.0
21
66381.0
0
LINE
8
BLACK
10
72391.0
20
66381.0
11
72300.0
21
66419.0
0
LINE
8
BLACK
10
72300.0
20
66419.0
11
72201.0
21
66419.0
0
LINE
8
BLACK
10
72201.0
20
66419.0
11
68701.0
21
66419.0
0
LINE
8
BLACK
10
68701.0
20
66419.0
11
68609.0
21
66381.0
0
LINE
8
BLACK
10
68609.0
20
66381.0
11
68539.0
21
66311.0
0
LINE
8
BLACK
10
68539.0
20
66311.0
11
68501.0
21
66220.0
0
LINE
8
BLACK
10
68501.0
20
66220.0
11
68501.0
21
66121.0
0
LINE
8
BLACK
10
68501.0
20
66121.0
11
68501.0
21
62621.0
0
LINE
8
BLACK
10
68501.0
20
62621.0
11
68539.0
21
62529.0
0
LINE
8
BLACK
10
68539.0
20
62529.0
11
68609.0
21
62459.0
0
LINE
8
BLACK
10
68609.0
20
62459.0
11
68700.0
21
62421.0
0
LINE
8
BLACK
10
68700.0
20
62421.0
11
68799.0
21
62421.0
0
LINE
8
BLACK
10
68799.0
20
62421.0
11
72299.0
21
62421.0
0
LINE
8
BLACK
10
72299.0
20
62421.0
11
72391.0
21
62459.0
0
LINE
8
BLACK
10
72391.0
20
62459.0
11
72461.0
21
62529.0
0
LINE
8
BLACK
10
72461.0
20
62529.0
11
72499.0
21
62620.0
0
LINE
8
BLACK
10
72499.0
20
62620.0
11
72499.0
21
58969.0
0
LINE
8
BLACK
10
72499.0
20
58969.0
11
72461.0
21
59061.0
0
LINE
8
BLACK
10
72461.0
20
59061.0
11
72391.0
21
59131.0
0
LINE
8
BLACK
10
72391.0
20
59131.0
11
72300.0
21
59169.0
0
LINE
8
BLACK
10
72300.0
20
59169.0
11
72201.0
21
59169.0
0
LINE
8
BLACK
10
72201.0
20
59169.0
11
68701.0
21
59169.0
0
LINE
8
BLACK
10
68701.0
20
59169.0
11
68650.0
21
59148.0
0
LINE
8
BLACK
10
68650.0
20
59148.0
11
68650.0
21
60920.0
0
LINE
8
BLACK
10
68650.0
20
60920.0
11
68650.0
21
61420.0
0
LINE
8
BLACK
10
68650.0
20
61420.0
11
68620.0
21
61573.0
0
LINE
8
BLACK
10
68620.0
20
61573.0
11
68620.0
21
61574.0
0
LINE
8
BLACK
10
68620.0
20
61574.0
11
68533.0
21
61703.0
0
LINE
8
BLACK
10
68533.0
20
61703.0
11
68033.0
21
62203.0
0
LINE
8
BLACK
10
68033.0
20
62203.0
11
67903.0
21
62290.0
0
LINE
8
BLACK
10
67903.0
20
62290.0
11
67750.0
21
62320.0
0
LINE
8
BLACK
10
67750.0
20
62320.0
11
67666.0
21
62320.0
0
LINE
8
BLACK
10
67666.0
20
62320.0
11
65033.0
21
64953.0
0
LINE
8
BLACK
10
65033.0
20
64953.0
11
65029.0
21
64956.0
0
LINE
8
BLACK
10
65029.0
20
64956.0
11
64599.0
21
65387.0
0
LINE
8
BLACK
10
64599.0
20
65387.0
11
64599.0
21
65539.0
0
LINE
8
BLACK
10
64599.0
20
65539.0
11
64508.0
21
65759.0
0
LINE
8
BLACK
10
64508.0
20
65759.0
11
64339.0
21
65928.0
0
LINE
8
BLACK
10
64339.0
20
65928.0
11
64119.0
21
66019.0
0
LINE
8
BLACK
10
64119.0
20
66019.0
11
63881.0
21
66019.0
0
LINE
8
BLACK
10
63881.0
20
66019.0
11
63661.0
21
65928.0
0
LINE
8
BLACK
10
63661.0
20
65928.0
11
63492.0
21
65759.0
0
LINE
8
BLACK
10
63492.0
20
65759.0
11
63401.0
21
65539.0
0
LINE
8
BLACK
10
63401.0
20
65539.0
11
63401.0
21
65301.0
0
LINE
8
BLACK
10
63401.0
20
65301.0
11
63492.0
21
65081.0
0
LINE
8
BLACK
10
63492.0
20
65081.0
11
63653.0
21
64920.0
0
LINE
8
BLACK
10
63653.0
20
64920.0
11
63553.0
21
64820.0
0
LINE
8
BLACK
10
63553.0
20
64820.0
11
63500.0
21
64820.0
0
LINE
8
BLACK
10
63500.0
20
64820.0
11
63347.0
21
64790.0
0
LINE
8
BLACK
10
63347.0
20
64790.0
11
63217.0
21
64703.0
0
LINE
8
BLACK
10
63217.0
20
64703.0
11
63214.0
21
64701.0
0
LINE
8
BLACK
10
63214.0
20
64701.0
11
62967.0
21
64453.0
0
LINE
8
BLACK
10
62967.0
20
64453.0
11
62880.0
21
64323.0
0
LINE
8
BLACK
10
62880.0
20
64323.0
11
62873.0
21
64290.0
0
LINE
8
BLACK
10
62873.0
20
64290.0
11
62798.0
21
64365.0
0
LINE
8
BLACK
10
62798.0
20
64365.0
11
62664.0
21
64421.0
0
LINE
8
BLACK
10
62664.0
20
64421.0
11
62797.0
21
64475.0
0
LINE
8
BLACK
10
62797.0
20
64475.0
11
62945.0
21
64622.0
0
LINE
8
BLACK
10
62945.0
20
64622.0
11
63025.0
21
64815.0
0
LINE
8
BLACK
10
63025.0
20
64815.0
11
63025.0
21
65024.0
0
LINE
8
BLACK
10
63025.0
20
65024.0
11
62945.0
21
65217.0
0
LINE
8
BLACK
10
62945.0
20
65217.0
11
62798.0
21
65365.0
0
LINE
8
BLACK
10
62798.0
20
65365.0
11
62605.0
21
65445.0
0
LINE
8
BLACK
10
62605.0
20
65445.0
11
62396.0
21
65445.0
0
LINE
8
BLACK
10
62396.0
20
65445.0
11
62203.0
21
65365.0
0
LINE
8
BLACK
10
62203.0
20
65365.0
11
62157.0
21
65320.0
0
LINE
8
BLACK
10
62157.0
20
65320.0
11
61500.0
21
65320.0
0
LINE
8
BLACK
10
61500.0
20
65320.0
11
61346.0
21
65290.0
0
LINE
8
BLACK
10
61346.0
20
65290.0
11
61217.0
21
65203.0
0
LINE
8
BLACK
10
61217.0
20
65203.0
11
60717.0
21
64703.0
0
LINE
8
BLACK
10
60717.0
20
64703.0
11
60630.0
21
64573.0
0
LINE
8
BLACK
10
60630.0
20
64573.0
11
60600.0
21
64420.0
0
LINE
8
BLACK
10
60600.0
20
64420.0
11
60600.0
21
61796.0
0
LINE
8
BLACK
10
60600.0
20
61796.0
11
60535.0
21
61731.0
0
LINE
8
BLACK
10
60535.0
20
61731.0
11
60451.0
21
61529.0
0
LINE
8
BLACK
10
60451.0
20
61529.0
11
60451.0
21
61311.0
0
LINE
8
BLACK
10
60451.0
20
61311.0
11
60535.0
21
61109.0
0
LINE
8
BLACK
10
60535.0
20
61109.0
11
60689.0
21
60955.0
0
LINE
8
BLACK
10
60689.0
20
60955.0
11
60891.0
21
60871.0
0
LINE
8
BLACK
10
60891.0
20
60871.0
11
61109.0
21
60871.0
0
LINE
8
BLACK
10
61109.0
20
60871.0
11
61311.0
21
60955.0
0
LINE
8
BLACK
10
61311.0
20
60955.0
11
61465.0
21
61109.0
0
LINE
8
BLACK
10
61465.0
20
61109.0
11
61549.0
21
61311.0
0
LINE
8
BLACK
10
61549.0
20
61311.0
11
61549.0
21
61529.0
0
LINE
8
BLACK
10
61549.0
20
61529.0
11
61465.0
21
61731.0
0
LINE
8
BLACK
10
61465.0
20
61731.0
11
61400.0
21
61796.0
0
LINE
8
BLACK
10
61400.0
20
61796.0
11
61400.0
21
64254.0
0
LINE
8
BLACK
10
61400.0
20
64254.0
11
61666.0
21
64520.0
0
LINE
8
BLACK
10
61666.0
20
64520.0
11
62157.0
21
64520.0
0
LINE
8
BLACK
10
62157.0
20
64520.0
11
62202.0
21
64475.0
0
LINE
8
BLACK
10
62202.0
20
64475.0
11
62335.0
21
64420.0
0
LINE
8
BLACK
10
62335.0
20
64420.0
11
62203.0
21
64365.0
0
LINE
8
BLACK
10
62203.0
20
64365.0
11
62055.0
21
64218.0
0
LINE
8
BLACK
10
62055.0
20
64218.0
11
61975.0
21
64025.0
0
LINE
8
BLACK
10
61975.0
20
64025.0
11
61975.0
21
63816.0
0
LINE
8
BLACK
10
61975.0
20
63816.0
11
62055.0
21
63623.0
0
LINE
8
BLACK
10
62055.0
20
63623.0
11
62202.0
21
63475.0
0
LINE
8
BLACK
10
62202.0
20
63475.0
11
62335.0
21
63420.0
0
LINE
8
BLACK
10
62335.0
20
63420.0
11
62203.0
21
63365.0
0
LINE
8
BLACK
10
62203.0
20
63365.0
11
62055.0
21
63218.0
0
LINE
8
BLACK
10
62055.0
20
63218.0
11
61975.0
21
63025.0
0
LINE
8
BLACK
10
61975.0
20
63025.0
11
61975.0
21
62816.0
0
LINE
8
BLACK
10
61975.0
20
62816.0
11
62055.0
21
62623.0
0
LINE
8
BLACK
10
62055.0
20
62623.0
11
62202.0
21
62475.0
0
LINE
8
BLACK
10
62202.0
20
62475.0
11
62395.0
21
62395.0
0
LINE
8
BLACK
10
62395.0
20
62395.0
11
62604.0
21
62395.0
0
LINE
8
BLACK
10
62604.0
20
62395.0
11
62797.0
21
62475.0
0
LINE
8
BLACK
10
62797.0
20
62475.0
11
62865.0
21
62543.0
0
LINE
8
BLACK
10
62865.0
20
62543.0
11
62903.0
21
62550.0
0
LINE
8
BLACK
10
62903.0
20
62550.0
11
63033.0
21
62637.0
0
LINE
8
BLACK
10
63033.0
20
62637.0
11
63405.0
21
63010.0
0
LINE
8
BLACK
10
63405.0
20
63010.0
11
63439.0
21
62929.0
0
LINE
8
BLACK
10
63439.0
20
62929.0
11
63509.0
21
62859.0
0
LINE
8
BLACK
10
63509.0
20
62859.0
11
63600.0
21
62821.0
0
LINE
8
BLACK
10
63600.0
20
62821.0
11
63699.0
21
62821.0
0
LINE
8
BLACK
10
63699.0
20
62821.0
11
64399.0
21
62821.0
0
LINE
8
BLACK
10
64399.0
20
62821.0
11
64491.0
21
62859.0
0
LINE
8
BLACK
10
64491.0
20
62859.0
11
64561.0
21
62929.0
0
LINE
8
BLACK
10
64561.0
20
62929.0
11
64599.0
21
63020.0
0
LINE
8
BLACK
10
64599.0
20
63020.0
11
65084.0
21
63020.0
0
LINE
8
BLACK
10
65084.0
20
63020.0
11
65577.0
21
62528.0
0
LINE
8
BLACK
10
65577.0
20
62528.0
11
65467.0
21
62453.0
0
LINE
8
BLACK
10
65467.0
20
62453.0
11
64967.0
21
61953.0
0
LINE
8
BLACK
10
64967.0
20
61953.0
11
64880.0
21
61823.0
0
LINE
8
BLACK
10
64880.0
20
61823.0
11
64850.0
21
61670.0
0
LINE
8
BLACK
10
64850.0
20
61670.0
11
64850.0
21
60086.0
0
LINE
8
BLACK
10
64850.0
20
60086.0
11
64084.0
21
59320.0
0
LINE
8
BLACK
10
64084.0
20
59320.0
11
63750.0
21
59320.0
0
LINE
8
BLACK
10
63750.0
20
59320.0
11
63596.0
21
59290.0
0
LINE
8
BLACK
10
63596.0
20
59290.0
11
63467.0
21
59203.0
0
LINE
8
BLACK
10
63467.0
20
59203.0
11
62967.0
21
58703.0
0
LINE
8
BLACK
10
62967.0
20
58703.0
11
62956.0
21
58689.0
0
LINE
8
BLACK
10
62956.0
20
58689.0
11
62945.0
21
58717.0
0
LINE
8
BLACK
10
62945.0
20
58717.0
11
62798.0
21
58865.0
0
LINE
8
BLACK
10
62798.0
20
58865.0
11
62605.0
21
58945.0
0
LINE
8
BLACK
10
62605.0
20
58945.0
11
62396.0
21
58945.0
0
LINE
8
BLACK
10
62396.0
20
58945.0
11
62203.0
21
58865.0
0
LINE
8
BLACK
10
62203.0
20
58865.0
11
62157.0
21
58820.0
0
LINE
8
BLACK
10
62157.0
20
58820.0
11
61666.0
21
58820.0
0
LINE
8
BLACK
10
61666.0
20
58820.0
11
61400.0
21
59086.0
0
LINE
8
BLACK
10
61400.0
20
59086.0
11
61400.0
21
59794.0
0
LINE
8
BLACK
10
61400.0
20
59794.0
11
61465.0
21
59859.0
0
LINE
8
BLACK
10
61465.0
20
59859.0
11
61549.0
21
60061.0
0
LINE
8
BLACK
10
61549.0
20
60061.0
11
61549.0
21
60279.0
0
LINE
8
BLACK
10
61549.0
20
60279.0
11
61465.0
21
60481.0
0
LINE
8
BLACK
10
61465.0
20
60481.0
11
61311.0
21
60635.0
0
LINE
8
BLACK
10
61311.0
20
60635.0
11
61109.0
21
60719.0
0
LINE
8
BLACK
10
61109.0
20
60719.0
11
60891.0
21
60719.0
0
LINE
8
BLACK
10
60891.0
20
60719.0
11
60689.0
21
60635.0
0
LINE
8
BLACK
10
60689.0
20
60635.0
11
60535.0
21
60481.0
0
LINE
8
BLACK
10
60535.0
20
60481.0
11
60451.0
21
60279.0
0
LINE
8
BLACK
10
60451.0
20
60279.0
11
60451.0
21
60061.0
0
LINE
8
BLACK
10
60451.0
20
60061.0
11
60535.0
21
59859.0
0
LINE
8
BLACK
10
60535.0
20
59859.0
11
60600.0
21
59794.0
0
LINE
8
BLACK
10
60600.0
20
59794.0
11
60600.0
21
58920.0
0
LINE
8
BLACK
10
60600.0
20
58920.0
11
60630.0
21
58767.0
0
LINE
8
BLACK
10
60630.0
20
58767.0
11
60717.0
21
58637.0
0
LINE
8
BLACK
10
60717.0
20
58637.0
11
61217.0
21
58137.0
0
LINE
8
BLACK
10
61217.0
20
58137.0
11
61346.0
21
58050.0
0
LINE
8
BLACK
10
61346.0
20
58050.0
11
61347.0
21
58050.0
0
LINE
8
BLACK
10
61347.0
20
58050.0
11
61500.0
21
58020.0
0
LINE
8
BLACK
10
61500.0
20
58020.0
11
62157.0
21
58020.0
0
LINE
8
BLACK
10
62157.0
20
58020.0
11
62202.0
21
57975.0
0
LINE
8
BLACK
10
62202.0
20
57975.0
11
62335.0
21
57920.0
0
LINE
8
BLACK
10
62335.0
20
57920.0
11
62203.0
21
57865.0
0
LINE
8
BLACK
10
62203.0
20
57865.0
11
62055.0
21
57718.0
0
LINE
8
BLACK
10
62055.0
20
57718.0
11
61975.0
21
57525.0
0
LINE
8
BLACK
10
61975.0
20
57525.0
11
61975.0
21
57316.0
0
LINE
8
BLACK
10
61975.0
20
57316.0
11
62055.0
21
57123.0
0
LINE
8
BLACK
10
62055.0
20
57123.0
11
62202.0
21
56975.0
0
LINE
8
BLACK
10
62202.0
20
56975.0
11
62335.0
21
56920.0
0
LINE
8
BLACK
10
62335.0
20
56920.0
11
62203.0
21
56865.0
0
LINE
8
BLACK
10
62203.0
20
56865.0
11
62055.0
21
56718.0
0
LINE
8
BLACK
10
62055.0
20
56718.0
11
61975.0
21
56525.0
0
LINE
8
BLACK
10
61975.0
20
56525.0
11
61975.0
21
56316.0
0
LINE
8
BLACK
10
61975.0
20
56316.0
11
62055.0
21
56123.0
0
LINE
8
BLACK
10
62055.0
20
56123.0
11
62202.0
21
55975.0
0
LINE
8
BLACK
10
62202.0
20
55975.0
11
62395.0
21
55895.0
0
LINE
8
BLACK
10
62395.0
20
55895.0
11
62459.0
21
55895.0
0
LINE
8
BLACK
10
62459.0
20
55895.0
11
63217.0
21
55137.0
0
LINE
8
BLACK
10
63217.0
20
55137.0
11
63346.0
21
55050.0
0
LINE
8
BLACK
10
63346.0
20
55050.0
11
63347.0
21
55050.0
0
LINE
8
BLACK
10
63347.0
20
55050.0
11
63500.0
21
55020.0
0
LINE
8
BLACK
10
63500.0
20
55020.0
11
64500.0
21
55020.0
0
LINE
8
BLACK
10
64500.0
20
55020.0
11
64653.0
21
55050.0
0
LINE
8
BLACK
10
64653.0
20
55050.0
11
64783.0
21
55137.0
0
LINE
8
BLACK
10
64783.0
20
55137.0
11
65030.0
21
55385.0
0
LINE
8
BLACK
10
65030.0
20
55385.0
11
65032.0
21
55387.0
0
LINE
8
BLACK
10
65032.0
20
55387.0
11
65033.0
21
55387.0
0
LINE
8
BLACK
10
65033.0
20
55387.0
11
65119.0
21
55516.0
0
LINE
8
BLACK
10
65119.0
20
55516.0
11
65120.0
21
55517.0
0
LINE
8
BLACK
10
65120.0
20
55517.0
11
65150.0
21
55670.0
0
LINE
8
BLACK
10
65150.0
20
55670.0
11
65150.0
21
56670.0
0
LINE
8
BLACK
10
65150.0
20
56670.0
11
65120.0
21
56823.0
0
LINE
8
BLACK
10
65120.0
20
56823.0
11
65120.0
21
56824.0
0
LINE
8
BLACK
10
65120.0
20
56824.0
11
65033.0
21
56953.0
0
LINE
8
BLACK
10
65033.0
20
56953.0
11
64533.0
21
57453.0
0
LINE
8
BLACK
10
64533.0
20
57453.0
11
64530.0
21
57455.0
0
LINE
8
BLACK
10
64530.0
20
57455.0
11
64508.0
21
57509.0
0
LINE
8
BLACK
10
64508.0
20
57509.0
11
64347.0
21
57670.0
0
LINE
8
BLACK
10
64347.0
20
57670.0
11
64508.0
21
57831.0
0
LINE
8
BLACK
10
64508.0
20
57831.0
11
64530.0
21
57886.0
0
LINE
8
BLACK
10
64530.0
20
57886.0
11
64533.0
21
57887.0
0
LINE
8
BLACK
10
64533.0
20
57887.0
11
66279.0
21
59635.0
0
LINE
8
BLACK
10
66279.0
20
59635.0
11
66282.0
21
59637.0
0
LINE
8
BLACK
10
66282.0
20
59637.0
11
66283.0
21
59637.0
0
LINE
8
BLACK
10
66283.0
20
59637.0
11
66362.0
21
59757.0
0
LINE
8
BLACK
10
66362.0
20
59757.0
11
66363.0
21
59758.0
0
LINE
8
BLACK
10
66363.0
20
59758.0
11
66465.0
21
59859.0
0
LINE
8
BLACK
10
66465.0
20
59859.0
11
66549.0
21
60061.0
0
LINE
8
BLACK
10
66549.0
20
60061.0
11
66549.0
21
60279.0
0
LINE
8
BLACK
10
66549.0
20
60279.0
11
66530.0
21
60325.0
0
LINE
8
BLACK
10
66530.0
20
60325.0
11
66951.0
21
59904.0
0
LINE
8
BLACK
10
66951.0
20
59904.0
11
66951.0
21
59821.0
0
LINE
8
BLACK
10
66951.0
20
59821.0
11
66989.0
21
59729.0
0
LINE
8
BLACK
10
66989.0
20
59729.0
11
67059.0
21
59659.0
0
LINE
8
BLACK
10
67059.0
20
59659.0
11
67150.0
21
59621.0
0
LINE
8
BLACK
10
67150.0
20
59621.0
11
67249.0
21
59621.0
0
LINE
8
BLACK
10
67249.0
20
59621.0
11
67849.0
21
59621.0
0
LINE
8
BLACK
10
67849.0
20
59621.0
11
67941.0
21
59659.0
0
LINE
8
BLACK
10
67941.0
20
59659.0
11
68011.0
21
59729.0
0
LINE
8
BLACK
10
68011.0
20
59729.0
11
68049.0
21
59820.0
0
LINE
8
BLACK
10
68049.0
20
59820.0
11
68049.0
21
59919.0
0
LINE
8
BLACK
10
68049.0
20
59919.0
11
68049.0
21
60154.0
0
LINE
8
BLACK
10
68049.0
20
60154.0
11
68529.0
21
60635.0
0
LINE
8
BLACK
10
68529.0
20
60635.0
11
68532.0
21
60637.0
0
LINE
8
BLACK
10
68532.0
20
60637.0
11
68533.0
21
60637.0
0
LINE
8
BLACK
10
68533.0
20
60637.0
11
68619.0
21
60766.0
0
LINE
8
BLACK
10
68619.0
20
60766.0
11
68620.0
21
60767.0
0
LINE
8
BLACK
10
68620.0
20
60767.0
11
68650.0
21
60920.0
0
LINE
8
BLACK
10
68650.0
20
60920.0
11
68650.0
21
59148.0
0
LINE
8
BLACK
10
68650.0
20
59148.0
11
68609.0
21
59131.0
0
LINE
8
BLACK
10
68609.0
20
59131.0
11
68539.0
21
59061.0
0
LINE
8
BLACK
10
68539.0
20
59061.0
11
68501.0
21
58970.0
0
LINE
8
BLACK
10
68501.0
20
58970.0
11
68501.0
21
58871.0
0
LINE
8
BLACK
10
68501.0
20
58871.0
11
68501.0
21
55371.0
0
LINE
8
BLACK
10
68501.0
20
55371.0
11
68539.0
21
55279.0
0
LINE
8
BLACK
10
68539.0
20
55279.0
11
68609.0
21
55209.0
0
LINE
8
BLACK
10
68609.0
20
55209.0
11
68700.0
21
55171.0
0
LINE
8
BLACK
10
68700.0
20
55171.0
11
68799.0
21
55171.0
0
LINE
8
BLACK
10
68799.0
20
55171.0
11
72299.0
21
55171.0
0
LINE
8
BLACK
10
72299.0
20
55171.0
11
72391.0
21
55209.0
0
LINE
8
BLACK
10
72391.0
20
55209.0
11
72461.0
21
55279.0
0
LINE
8
BLACK
10
72461.0
20
55279.0
11
72499.0
21
55370.0
0
LINE
8
BLACK
10
72499.0
20
55370.0
11
72499.0
21
53995.0
0
LINE
8
BLACK
10
72499.0
20
53995.0
11
60025.0
21
53995.0
0
LINE
8
BLACK
10
60025.0
20
53995.0
11
60025.0
21
56315.0
0
LINE
8
BLACK
10
60025.0
20
56315.0
11
60025.0
21
56524.0
0
LINE
8
BLACK
10
60025.0
20
56524.0
11
60025.0
21
62815.0
0
LINE
8
BLACK
10
60025.0
20
62815.0
11
60025.0
21
63024.0
0
LINE
8
BLACK
10
60025.0
20
63024.0
11
60024.0
21
63027.0
0
LINE
8
BLACK
10
60024.0
20
63027.0
11
60024.0
21
64595.0
0
LINE
8
BLACK
10
60024.0
20
64595.0
11
60024.0
21
64694.0
0
LINE
8
BLACK
10
60024.0
20
64694.0
11
60024.0
21
65244.0
0
LINE
8
BLACK
10
60024.0
20
65244.0
11
59986.0
21
65336.0
0
LINE
8
BLACK
10
59986.0
20
65336.0
11
59916.0
21
65406.0
0
LINE
8
BLACK
10
59916.0
20
65406.0
11
59825.0
21
65444.0
0
LINE
8
BLACK
10
59825.0
20
65444.0
11
59726.0
21
65444.0
0
LINE
8
BLACK
10
59726.0
20
65444.0
11
59176.0
21
65444.0
0
LINE
8
BLACK
10
59176.0
20
65444.0
11
59084.0
21
65406.0
0
LINE
8
BLACK
10
59084.0
20
65406.0
11
59014.0
21
65336.0
0
LINE
8
BLACK
10
59014.0
20
65336.0
11
59007.0
21
65320.0
0
LINE
8
BLACK
10
59007.0
20
65320.0
11
58666.0
21
65320.0
0
LINE
8
BLACK
10
58666.0
20
65320.0
11
57900.0
21
66086.0
0
LINE
8
BLACK
10
57900.0
20
66086.0
11
57900.0
21
66544.0
0
LINE
8
BLACK
10
57900.0
20
66544.0
11
57965.0
21
66609.0
0
LINE
8
BLACK
10
57965.0
20
66609.0
11
58049.0
21
66811.0
0
LINE
8
BLACK
10
58049.0
20
66811.0
11
58049.0
21
67029.0
0
LINE
8
BLACK
10
58049.0
20
67029.0
11
57965.0
21
67231.0
0
LINE
8
BLACK
10
57965.0
20
67231.0
11
57811.0
21
67385.0
0
LINE
8
BLACK
10
57811.0
20
67385.0
11
57609.0
21
67469.0
0
LINE
8
BLACK
10
57609.0
20
67469.0
11
57391.0
21
67469.0
0
LINE
8
BLACK
10
57391.0
20
67469.0
11
57189.0
21
67385.0
0
LINE
8
BLACK
10
57189.0
20
67385.0
11
57035.0
21
67231.0
0
LINE
8
BLACK
10
57035.0
20
67231.0
11
56951.0
21
67029.0
0
LINE
8
BLACK
10
56951.0
20
67029.0
11
56951.0
21
66811.0
0
LINE
8
BLACK
10
56951.0
20
66811.0
11
57035.0
21
66609.0
0
LINE
8
BLACK
10
57035.0
20
66609.0
11
57100.0
21
66544.0
0
LINE
8
BLACK
10
57100.0
20
66544.0
11
57100.0
21
65920.0
0
LINE
8
BLACK
10
57100.0
20
65920.0
11
57130.0
21
65767.0
0
LINE
8
BLACK
10
57130.0
20
65767.0
11
57217.0
21
65637.0
0
LINE
8
BLACK
10
57217.0
20
65637.0
11
58217.0
21
64637.0
0
LINE
8
BLACK
10
58217.0
20
64637.0
11
58346.0
21
64550.0
0
LINE
8
BLACK
10
58346.0
20
64550.0
11
58347.0
21
64550.0
0
LINE
8
BLACK
10
58347.0
20
64550.0
11
58500.0
21
64520.0
0
LINE
8
BLACK
10
58500.0
20
64520.0
11
59007.0
21
64520.0
0
LINE
8
BLACK
10
59007.0
20
64520.0
11
59014.0
21
64504.0
0
LINE
8
BLACK
10
59014.0
20
64504.0
11
59084.0
21
64434.0
0
LINE
8
BLACK
10
59084.0
20
64434.0
11
59175.0
21
64396.0
0
LINE
8
BLACK
10
59175.0
20
64396.0
11
59274.0
21
64396.0
0
LINE
8
BLACK
10
59274.0
20
64396.0
11
59291.0
21
64396.0
0
LINE
8
BLACK
10
59291.0
20
64396.0
11
59233.0
21
64372.0
0
LINE
8
BLACK
10
59233.0
20
64372.0
11
59210.0
21
64281.0
0
LINE
8
BLACK
10
59210.0
20
64281.0
11
59500.0
21
63991.0
0
LINE
8
BLACK
10
59500.0
20
63991.0
11
59790.0
21
64281.0
0
LINE
8
BLACK
10
59790.0
20
64281.0
11
59767.0
21
64372.0
0
LINE
8
BLACK
10
59767.0
20
64372.0
11
59697.0
21
64396.0
0
LINE
8
BLACK
10
59697.0
20
64396.0
11
59824.0
21
64396.0
0
LINE
8
BLACK
10
59824.0
20
64396.0
11
59916.0
21
64434.0
0
LINE
8
BLACK
10
59916.0
20
64434.0
11
59986.0
21
64504.0
0
LINE
8
BLACK
10
59986.0
20
64504.0
11
60024.0
21
64595.0
0
LINE
8
BLACK
10
60024.0
20
64595.0
11
60024.0
21
63027.0
0
LINE
8
BLACK
10
60024.0
20
63027.0
11
60019.0
21
63039.0
0
LINE
8
BLACK
10
60019.0
20
63039.0
11
60019.0
21
63846.0
0
LINE
8
BLACK
10
60019.0
20
63846.0
11
60008.0
21
64050.0
0
LINE
8
BLACK
10
60008.0
20
64050.0
11
59952.0
21
64187.0
0
LINE
8
BLACK
10
59952.0
20
64187.0
11
59861.0
21
64210.0
0
LINE
8
BLACK
10
59861.0
20
64210.0
11
59571.0
21
63920.0
0
LINE
8
BLACK
10
59571.0
20
63920.0
11
59861.0
21
63630.0
0
LINE
8
BLACK
10
59861.0
20
63630.0
11
59952.0
21
63653.0
0
LINE
8
BLACK
10
59952.0
20
63653.0
11
60019.0
21
63846.0
0
LINE
8
BLACK
10
60019.0
20
63846.0
11
60019.0
21
63039.0
0
LINE
8
BLACK
10
60019.0
20
63039.0
11
59945.0
21
63217.0
0
LINE
8
BLACK
10
59945.0
20
63217.0
11
59798.0
21
63365.0
0
LINE
8
BLACK
10
59798.0
20
63365.0
11
59657.0
21
63424.0
0
LINE
8
BLACK
10
59657.0
20
63424.0
11
59767.0
21
63468.0
0
LINE
8
BLACK
10
59767.0
20
63468.0
11
59790.0
21
63559.0
0
LINE
8
BLACK
10
59790.0
20
63559.0
11
59500.0
21
63849.0
0
LINE
8
BLACK
10
59500.0
20
63849.0
11
59429.0
21
63778.0
0
LINE
8
BLACK
10
59429.0
20
63778.0
11
59429.0
21
63920.0
0
LINE
8
BLACK
10
59429.0
20
63920.0
11
59139.0
21
64210.0
0
LINE
8
BLACK
10
59139.0
20
64210.0
11
59048.0
21
64187.0
0
LINE
8
BLACK
10
59048.0
20
64187.0
11
58981.0
21
63994.0
0
LINE
8
BLACK
10
58981.0
20
63994.0
11
58992.0
21
63790.0
0
LINE
8
BLACK
10
58992.0
20
63790.0
11
59048.0
21
63653.0
0
LINE
8
BLACK
10
59048.0
20
63653.0
11
59139.0
21
63630.0
0
LINE
8
BLACK
10
59139.0
20
63630.0
11
59429.0
21
63920.0
0
LINE
8
BLACK
10
59429.0
20
63920.0
11
59429.0
21
63778.0
0
LINE
8
BLACK
10
59429.0
20
63778.0
11
59210.0
21
63559.0
0
LINE
8
BLACK
10
59210.0
20
63559.0
11
59233.0
21
63468.0
0
LINE
8
BLACK
10
59233.0
20
63468.0
11
59351.0
21
63427.0
0
LINE
8
BLACK
10
59351.0
20
63427.0
11
59203.0
21
63365.0
0
LINE
8
BLACK
10
59203.0
20
63365.0
11
59055.0
21
63218.0
0
LINE
8
BLACK
10
59055.0
20
63218.0
11
58975.0
21
63025.0
0
LINE
8
BLACK
10
58975.0
20
63025.0
11
58975.0
21
62816.0
0
LINE
8
BLACK
10
58975.0
20
62816.0
11
59055.0
21
62623.0
0
LINE
8
BLACK
10
59055.0
20
62623.0
11
59202.0
21
62475.0
0
LINE
8
BLACK
10
59202.0
20
62475.0
11
59395.0
21
62395.0
0
LINE
8
BLACK
10
59395.0
20
62395.0
11
59604.0
21
62395.0
0
LINE
8
BLACK
10
59604.0
20
62395.0
11
59797.0
21
62475.0
0
LINE
8
BLACK
10
59797.0
20
62475.0
11
59945.0
21
62622.0
0
LINE
8
BLACK
10
59945.0
20
62622.0
11
60025.0
21
62815.0
0
LINE
8
BLACK
10
60025.0
20
62815.0
11
60025.0
21
56524.0
0
LINE
8
BLACK
10
60025.0
20
56524.0
11
60024.0
21
56527.0
0
LINE
8
BLACK
10
60024.0
20
56527.0
11
60024.0
21
58095.0
0
LINE
8
BLACK
10
60024.0
20
58095.0
11
60024.0
21
58194.0
0
LINE
8
BLACK
10
60024.0
20
58194.0
11
60024.0
21
58744.0
0
LINE
8
BLACK
10
60024.0
20
58744.0
11
59986.0
21
58836.0
0
LINE
8
BLACK
10
59986.0
20
58836.0
11
59916.0
21
58906.0
0
LINE
8
BLACK
10
59916.0
20
58906.0
11
59825.0
21
58944.0
0
LINE
8
BLACK
10
59825.0
20
58944.0
11
59726.0
21
58944.0
0
LINE
8
BLACK
10
59726.0
20
58944.0
11
59176.0
21
58944.0
0
LINE
8
BLACK
10
59176.0
20
58944.0
11
59084.0
21
58906.0
0
LINE
8
BLACK
10
59084.0
20
58906.0
11
59014.0
21
58836.0
0
LINE
8
BLACK
10
59014.0
20
58836.0
11
59007.0
21
58820.0
0
LINE
8
BLACK
10
59007.0
20
58820.0
11
58500.0
21
58820.0
0
LINE
8
BLACK
10
58500.0
20
58820.0
11
58346.0
21
58790.0
0
LINE
8
BLACK
10
58346.0
20
58790.0
11
58217.0
21
58703.0
0
LINE
8
BLACK
10
58217.0
20
58703.0
11
58049.0
21
58535.0
0
LINE
8
BLACK
10
58049.0
20
58535.0
11
58049.0
21
59811.0
0
LINE
8
BLACK
10
58049.0
20
59811.0
11
58049.0
21
60029.0
0
LINE
8
BLACK
10
58049.0
20
60029.0
11
58049.0
21
61811.0
0
LINE
8
BLACK
10
58049.0
20
61811.0
11
58049.0
21
62029.0
0
LINE
8
BLACK
10
58049.0
20
62029.0
11
57965.0
21
62231.0
0
LINE
8
BLACK
10
57965.0
20
62231.0
11
57811.0
21
62385.0
0
LINE
8
BLACK
10
57811.0
20
62385.0
11
57609.0
21
62469.0
0
LINE
8
BLACK
10
57609.0
20
62469.0
11
57391.0
21
62469.0
0
LINE
8
BLACK
10
57391.0
20
62469.0
11
57189.0
21
62385.0
0
LINE
8
BLACK
10
57189.0
20
62385.0
11
57124.0
21
62320.0
0
LINE
8
BLACK
10
57124.0
20
62320.0
11
56527.0
21
62320.0
0
LINE
8
BLACK
10
56527.0
20
62320.0
11
56511.0
21
62361.0
0
LINE
8
BLACK
10
56511.0
20
62361.0
11
56441.0
21
62431.0
0
LINE
8
BLACK
10
56441.0
20
62431.0
11
56350.0
21
62469.0
0
LINE
8
BLACK
10
56350.0
20
62469.0
11
56251.0
21
62469.0
0
LINE
8
BLACK
10
56251.0
20
62469.0
11
55651.0
21
62469.0
0
LINE
8
BLACK
10
55651.0
20
62469.0
11
55559.0
21
62431.0
0
LINE
8
BLACK
10
55559.0
20
62431.0
11
55489.0
21
62361.0
0
LINE
8
BLACK
10
55489.0
20
62361.0
11
55451.0
21
62270.0
0
LINE
8
BLACK
10
55451.0
20
62270.0
11
55451.0
21
62171.0
0
LINE
8
BLACK
10
55451.0
20
62171.0
11
55451.0
21
61571.0
0
LINE
8
BLACK
10
55451.0
20
61571.0
11
55489.0
21
61479.0
0
LINE
8
BLACK
10
55489.0
20
61479.0
11
55559.0
21
61409.0
0
LINE
8
BLACK
10
55559.0
20
61409.0
11
55650.0
21
61371.0
0
LINE
8
BLACK
10
55650.0
20
61371.0
11
55712.0
21
61371.0
0
LINE
8
BLACK
10
55712.0
20
61371.0
11
55692.0
21
61298.0
0
LINE
8
BLACK
10
55692.0
20
61298.0
11
56000.0
21
60991.0
0
LINE
8
BLACK
10
56000.0
20
60991.0
11
56308.0
21
61298.0
0
LINE
8
BLACK
10
56308.0
20
61298.0
11
56287.0
21
61371.0
0
LINE
8
BLACK
10
56287.0
20
61371.0
11
56349.0
21
61371.0
0
LINE
8
BLACK
10
56349.0
20
61371.0
11
56441.0
21
61409.0
0
LINE
8
BLACK
10
56441.0
20
61409.0
11
56511.0
21
61479.0
0
LINE
8
BLACK
10
56511.0
20
61479.0
11
56528.0
21
61520.0
0
LINE
8
BLACK
10
56528.0
20
61520.0
11
57124.0
21
61520.0
0
LINE
8
BLACK
10
57124.0
20
61520.0
11
57189.0
21
61455.0
0
LINE
8
BLACK
10
57189.0
20
61455.0
11
57391.0
21
61371.0
0
LINE
8
BLACK
10
57391.0
20
61371.0
11
57609.0
21
61371.0
0
LINE
8
BLACK
10
57609.0
20
61371.0
11
57811.0
21
61455.0
0
LINE
8
BLACK
10
57811.0
20
61455.0
11
57965.0
21
61609.0
0
LINE
8
BLACK
10
57965.0
20
61609.0
11
58049.0
21
61811.0
0
LINE
8
BLACK
10
58049.0
20
61811.0
11
58049.0
21
60029.0
0
LINE
8
BLACK
10
58049.0
20
60029.0
11
57965.0
21
60231.0
0
LINE
8
BLACK
10
57965.0
20
60231.0
11
57811.0
21
60385.0
0
LINE
8
BLACK
10
57811.0
20
60385.0
11
57609.0
21
60469.0
0
LINE
8
BLACK
10
57609.0
20
60469.0
11
57391.0
21
60469.0
0
LINE
8
BLACK
10
57391.0
20
60469.0
11
57189.0
21
60385.0
0
LINE
8
BLACK
10
57189.0
20
60385.0
11
57124.0
21
60320.0
0
LINE
8
BLACK
10
57124.0
20
60320.0
11
56543.0
21
60320.0
0
LINE
8
BLACK
10
56543.0
20
60320.0
11
56543.0
21
60841.0
0
LINE
8
BLACK
10
56543.0
20
60841.0
11
56532.0
21
61054.0
0
LINE
8
BLACK
10
56532.0
20
61054.0
11
56472.0
21
61201.0
0
LINE
8
BLACK
10
56472.0
20
61201.0
11
56378.0
21
61228.0
0
LINE
8
BLACK
10
56378.0
20
61228.0
11
56071.0
21
60920.0
0
LINE
8
BLACK
10
56071.0
20
60920.0
11
56378.0
21
60612.0
0
LINE
8
BLACK
10
56378.0
20
60612.0
11
56472.0
21
60639.0
0
LINE
8
BLACK
10
56472.0
20
60639.0
11
56543.0
21
60841.0
0
LINE
8
BLACK
10
56543.0
20
60841.0
11
56543.0
21
60320.0
0
LINE
8
BLACK
10
56543.0
20
60320.0
11
56376.0
21
60320.0
0
LINE
8
BLACK
10
56376.0
20
60320.0
11
56311.0
21
60385.0
0
LINE
8
BLACK
10
56311.0
20
60385.0
11
56219.0
21
60423.0
0
LINE
8
BLACK
10
56219.0
20
60423.0
11
56281.0
21
60448.0
0
LINE
8
BLACK
10
56281.0
20
60448.0
11
56308.0
21
60542.0
0
LINE
8
BLACK
10
56308.0
20
60542.0
11
56000.0
21
60849.0
0
LINE
8
BLACK
10
56000.0
20
60849.0
11
55929.0
21
60779.0
0
LINE
8
BLACK
10
55929.0
20
60779.0
11
55929.0
21
60920.0
0
LINE
8
BLACK
10
55929.0
20
60920.0
11
55622.0
21
61228.0
0
LINE
8
BLACK
10
55622.0
20
61228.0
11
55528.0
21
61201.0
0
LINE
8
BLACK
10
55528.0
20
61201.0
11
55457.0
21
60999.0
0
LINE
8
BLACK
10
55457.0
20
60999.0
11
55468.0
21
60786.0
0
LINE
8
BLACK
10
55468.0
20
60786.0
11
55528.0
21
60639.0
0
LINE
8
BLACK
10
55528.0
20
60639.0
11
55622.0
21
60612.0
0
LINE
8
BLACK
10
55622.0
20
60612.0
11
55929.0
21
60920.0
0
LINE
8
BLACK
10
55929.0
20
60920.0
11
55929.0
21
60779.0
0
LINE
8
BLACK
10
55929.0
20
60779.0
11
55692.0
21
60542.0
0
LINE
8
BLACK
10
55692.0
20
60542.0
11
55719.0
21
60448.0
0
LINE
8
BLACK
10
55719.0
20
60448.0
11
55784.0
21
60425.0
0
LINE
8
BLACK
10
55784.0
20
60425.0
11
55689.0
21
60385.0
0
LINE
8
BLACK
10
55689.0
20
60385.0
11
55535.0
21
60231.0
0
LINE
8
BLACK
10
55535.0
20
60231.0
11
55451.0
21
60029.0
0
LINE
8
BLACK
10
55451.0
20
60029.0
11
55451.0
21
59811.0
0
LINE
8
BLACK
10
55451.0
20
59811.0
11
55535.0
21
59609.0
0
LINE
8
BLACK
10
55535.0
20
59609.0
11
55689.0
21
59455.0
0
LINE
8
BLACK
10
55689.0
20
59455.0
11
55891.0
21
59371.0
0
LINE
8
BLACK
10
55891.0
20
59371.0
11
56109.0
21
59371.0
0
LINE
8
BLACK
10
56109.0
20
59371.0
11
56311.0
21
59455.0
0
LINE
8
BLACK
10
56311.0
20
59455.0
11
56376.0
21
59520.0
0
LINE
8
BLACK
10
56376.0
20
59520.0
11
57124.0
21
59520.0
0
LINE
8
BLACK
10
57124.0
20
59520.0
11
57189.0
21
59455.0
0
LINE
8
BLACK
10
57189.0
20
59455.0
11
57391.0
21
59371.0
0
LINE
8
BLACK
10
57391.0
20
59371.0
11
57609.0
21
59371.0
0
LINE
8
BLACK
10
57609.0
20
59371.0
11
57811.0
21
59455.0
0
LINE
8
BLACK
10
57811.0
20
59455.0
11
57965.0
21
59609.0
0
LINE
8
BLACK
10
57965.0
20
59609.0
11
58049.0
21
59811.0
0
LINE
8
BLACK
10
58049.0
20
59811.0
11
58049.0
21
58535.0
0
LINE
8
BLACK
10
58049.0
20
58535.0
11
57217.0
21
57703.0
0
LINE
8
BLACK
10
57217.0
20
57703.0
11
57130.0
21
57573.0
0
LINE
8
BLACK
10
57130.0
20
57573.0
11
57100.0
21
57420.0
0
LINE
8
BLACK
10
57100.0
20
57420.0
11
57100.0
21
55296.0
0
LINE
8
BLACK
10
57100.0
20
55296.0
11
57035.0
21
55231.0
0
LINE
8
BLACK
10
57035.0
20
55231.0
11
56951.0
21
55029.0
0
LINE
8
BLACK
10
56951.0
20
55029.0
11
56951.0
21
54811.0
0
LINE
8
BLACK
10
56951.0
20
54811.0
11
57035.0
21
54609.0
0
LINE
8
BLACK
10
57035.0
20
54609.0
11
57189.0
21
54455.0
0
LINE
8
BLACK
10
57189.0
20
54455.0
11
57391.0
21
54371.0
0
LINE
8
BLACK
10
57391.0
20
54371.0
11
57609.0
21
54371.0
0
LINE
8
BLACK
10
57609.0
20
54371.0
11
57811.0
21
54455.0
0
LINE
8
BLACK
10
57811.0
20
54455.0
11
57965.0
21
54609.0
0
LINE
8
BLACK
10
57965.0
20
54609.0
11
58049.0
21
54811.0
0
LINE
8
BLACK
10
58049.0
20
54811.0
11
58049.0
21
55029.0
0
LINE
8
BLACK
10
58049.0
20
55029.0
11
57965.0
21
55231.0
0
LINE
8
BLACK
10
57965.0
20
55231.0
11
57900.0
21
55296.0
0
LINE
8
BLACK
10
57900.0
20
55296.0
11
57900.0
21
57254.0
0
LINE
8
BLACK
10
57900.0
20
57254.0
11
58666.0
21
58020.0
0
LINE
8
BLACK
10
58666.0
20
58020.0
11
59007.0
21
58020.0
0
LINE
8
BLACK
10
59007.0
20
58020.0
11
59014.0
21
58004.0
0
LINE
8
BLACK
10
59014.0
20
58004.0
11
59084.0
21
57934.0
0
LINE
8
BLACK
10
59084.0
20
57934.0
11
59175.0
21
57896.0
0
LINE
8
BLACK
10
59175.0
20
57896.0
11
59274.0
21
57896.0
0
LINE
8
BLACK
10
59274.0
20
57896.0
11
59291.0
21
57896.0
0
LINE
8
BLACK
10
59291.0
20
57896.0
11
59233.0
21
57872.0
0
LINE
8
BLACK
10
59233.0
20
57872.0
11
59210.0
21
57781.0
0
LINE
8
BLACK
10
59210.0
20
57781.0
11
59500.0
21
57491.0
0
LINE
8
BLACK
10
59500.0
20
57491.0
11
59790.0
21
57781.0
0
LINE
8
BLACK
10
59790.0
20
57781.0
11
59767.0
21
57872.0
0
LINE
8
BLACK
10
59767.0
20
57872.0
11
59697.0
21
57896.0
0
LINE
8
BLACK
10
59697.0
20
57896.0
11
59824.0
21
57896.0
0
LINE
8
BLACK
10
59824.0
20
57896.0
11
59916.0
21
57934.0
0
LINE
8
BLACK
10
59916.0
20
57934.0
11
59986.0
21
58004.0
0
LINE
8
BLACK
10
59986.0
20
58004.0
11
60024.0
21
58095.0
0
LINE
8
BLACK
10
60024.0
20
58095.0
11
60024.0
21
56527.0
0
LINE
8
BLACK
10
60024.0
20
56527.0
11
60019.0
21
56539.0
0
LINE
8
BLACK
10
60019.0
20
56539.0
11
60019.0
21
57346.0
0
LINE
8
BLACK
10
60019.0
20
57346.0
11
60008.0
21
57550.0
0
LINE
8
BLACK
10
60008.0
20
57550.0
11
59952.0
21
57687.0
0
LINE
8
BLACK
10
59952.0
20
57687.0
11
59861.0
21
57710.0
0
LINE
8
BLACK
10
59861.0
20
57710.0
11
59571.0
21
57420.0
0
LINE
8
BLACK
10
59571.0
20
57420.0
11
59861.0
21
57130.0
0
LINE
8
BLACK
10
59861.0
20
57130.0
11
59952.0
21
57153.0
0
LINE
8
BLACK
10
59952.0
20
57153.0
11
60019.0
21
57346.0
0
LINE
8
BLACK
10
60019.0
20
57346.0
11
60019.0
21
56539.0
0
LINE
8
BLACK
10
60019.0
20
56539.0
11
59945.0
21
56717.0
0
LINE
8
BLACK
10
59945.0
20
56717.0
11
59798.0
21
56865.0
0
LINE
8
BLACK
10
59798.0
20
56865.0
11
59657.0
21
56924.0
0
LINE
8
BLACK
10
59657.0
20
56924.0
11
59767.0
21
56968.0
0
LINE
8
BLACK
10
59767.0
20
56968.0
11
59790.0
21
57059.0
0
LINE
8
BLACK
10
59790.0
20
57059.0
11
59500.0
21
57349.0
0
LINE
8
BLACK
10
59500.0
20
57349.0
11
59429.0
21
57278.0
0
LINE
8
BLACK
10
59429.0
20
57278.0
11
59429.0
21
57420.0
0
LINE
8
BLACK
10
59429.0
20
57420.0
11
59139.0
21
57710.0
0
LINE
8
BLACK
10
59139.0
20
57710.0
11
59048.0
21
57687.0
0
LINE
8
BLACK
10
59048.0
20
57687.0
11
58981.0
21
57494.0
0
LINE
8
BLACK
10
58981.0
20
57494.0
11
58992.0
21
57290.0
0
LINE
8
BLACK
10
58992.0
20
57290.0
11
59048.0
21
57153.0
0
LINE
8
BLACK
10
59048.0
20
57153.0
11
59139.0
21
57130.0
0
LINE
8
BLACK
10
59139.0
20
57130.0
11
59429.0
21
57420.0
0
LINE
8
BLACK
10
59429.0
20
57420.0
11
59429.0
21
57278.0
0
LINE
8
BLACK
10
59429.0
20
57278.0
11
59210.0
21
57059.0
0
LINE
8
BLACK
10
59210.0
20
57059.0
11
59233.0
21
56968.0
0
LINE
8
BLACK
10
59233.0
20
56968.0
11
59351.0
21
56927.0
0
LINE
8
BLACK
10
59351.0
20
56927.0
11
59203.0
21
56865.0
0
LINE
8
BLACK
10
59203.0
20
56865.0
11
59055.0
21
56718.0
0
LINE
8
BLACK
10
59055.0
20
56718.0
11
58975.0
21
56525.0
0
LINE
8
BLACK
10
58975.0
20
56525.0
11
58975.0
21
56316.0
0
LINE
8
BLACK
10
58975.0
20
56316.0
11
59055.0
21
56123.0
0
LINE
8
BLACK
10
59055.0
20
56123.0
11
59202.0
21
55975.0
0
LINE
8
BLACK
10
59202.0
20
55975.0
11
59395.0
21
55895.0
0
LINE
8
BLACK
10
59395.0
20
55895.0
11
59604.0
21
55895.0
0
LINE
8
BLACK
10
59604.0
20
55895.0
11
59797.0
21
55975.0
0
LINE
8
BLACK
10
59797.0
20
55975.0
11
59945.0
21
56122.0
0
LINE
8
BLACK
10
59945.0
20
56122.0
11
60025.0
21
56315.0
0
LINE
8
BLACK
10
60025.0
20
56315.0
11
60025.0
21
53995.0
0
LINE
8
BLACK
10
60025.0
20
53995.0
11
55075.0
21
53995.0
0
LINE
8
BLACK
10
55075.0
20
53995.0
11
55075.0
21
67845.0
0
LINE
8
BLACK
10
55075.0
20
67845.0
11
72675.0
21
67845.0
0
LINE
8
BLACK
10
72675.0
20
67845.0
11
72675.0
21
53995.0
0
ENDSEC
0
EOF
