0
SECTION
2
HEADER
9
$ANGBASE
50
0.0
9
$ANGDIR
70
0
0
ENDSEC
0
SECTION
2
TABLES
0
TABLE
2
LTYPE
70
1
0
LTYPE
2
CONTINUOUS
70
0
3
Solid line
72
65
73
0
40
0.0
0
ENDTAB
0
TABLE
2
LAYER
70
24
0
LAYER
2
BLACK
70
0
62
1
6
CONTINUOUS
0
LAYER
2
BLUE
70
0
62
2
6
CONTINUOUS
0
LAYER
2
GREEN
70
0
62
3
6
CONTINUOUS
0
LAYER
2
CYAN
70
0
62
4
6
CONTINUOUS
0
LAYER
2
RED
70
0
62
5
6
CONTINUOUS
0
LAYER
2
MAGENTA
70
0
62
6
6
CONTINUOUS
0
LAYER
2
BROWN
70
0
62
7
6
CONTINUOUS
0
LAYER
2
GRAY
70
0
62
8
6
CONTINUOUS
0
LAYER
2
DARKGRAY
70
0
62
9
6
CONTINUOUS
0
LAYER
2
LIGHTBLUE
70
0
62
10
6
CONTINUOUS
0
LAYER
2
LIGHTGREEN
70
0
62
11
6
CONTINUOUS
0
LAYER
2
LIGHTCYAN
70
0
62
12
6
CONTINUOUS
0
LAYER
2
LIGHTRED
70
0
62
13
6
CONTINUOUS
0
LAYER
2
LIGHTMAGENTA
70
0
62
14
6
CONTINUOUS
0
LAYER
2
YELLOW
70
0
62
15
6
CONTINUOUS
0
LAYER
2
WHITE
70
0
62
16
6
CONTINUOUS
0
LAYER
2
DARKDARKGRAY
70
0
62
17
6
CONTINUOUS
0
LAYER
2
DARKBLUE
70
0
62
18
6
CONTINUOUS
0
LAYER
2
DARKGREEN
70
0
62
19
6
CONTINUOUS
0
LAYER
2
DARKCYAN
70
0
62
20
6
CONTINUOUS
0
LAYER
2
DARKRED
70
0
62
21
6
CONTINUOUS
0
LAYER
2
DARKMAGENTA
70
0
62
22
6
CONTINUOUS
0
LAYER
2
DARKBROWN
70
0
62
23
6
CONTINUOUS
0
LAYER
2
LIGHTYELLOW
70
0
62
24
6
CONTINUOUS
0
ENDTAB
0
ENDSEC
0
SECTION
2
ENTITIES
0
LINE
8
BLACK
10
54750.0
20
68095.0
11
73000.0
21
68095.0
0
LINE
8
BLACK
10
54750.0
20
68245.0
11
73000.0
21
68245.0
0
ARC
8
BLACK
10
73000.0
20
68170.0
40
75.0
50
270.0
51
450.0
0
ARC
8
BLACK
10
54750.0
20
68170.0
40
75.0
50
90.0
51
270.0
0
LINE
8
BLACK
10
73075.0
20
53670.0
11
73075.0
21
68170.0
0
LINE
8
BLACK
10
72925.0
20
53670.0
11
72925.0
21
68170.0
0
ARC
8
BLACK
10
73000.0
20
68170.0
40
75.0
50
360.0
51
540.0
0
ARC
8
BLACK
10
73000.0
20
53670.0
40
75.0
50
180.0
51
360.0
0
LINE
8
BLACK
10
54750.0
20
53595.0
11
73000.0
21
53595.0
0
LINE
8
BLACK
10
54750.0
20
53745.0
11
73000.0
21
53745.0
0
ARC
8
BLACK
10
73000.0
20
53670.0
40
75.0
50
270.0
51
450.0
0
ARC
8
BLACK
10
54750.0
20
53670.0
40
75.0
50
90.0
51
270.0
0
LINE
8
BLACK
10
54825.0
20
53670.0
11
54825.0
21
68170.0
0
LINE
8
BLACK
10
54675.0
20
53670.0
11
54675.0
21
68170.0
0
ARC
8
BLACK
10
54750.0
20
68170.0
40
75.0
50
360.0
51
540.0
0
ARC
8
BLACK
10
54750.0
20
53670.0
40
75.0
50
180.0
51
360.0
0
LINE
8
BLACK
10
63650.0
20
63770.0
11
63650.0
21
63070.0
0
LINE
8
BLACK
10
63650.0
20
63070.0
11
64350.0
21
63070.0
0
LINE
8
BLACK
10
64350.0
20
63070.0
11
64350.0
21
63770.0
0
LINE
8
BLACK
10
64350.0
20
63770.0
11
63650.0
21
63770.0
0
CIRCLE
8
BLACK
10
64000.0
20
65420.0
40
350
0
CIRCLE
8
BLACK
10
64000.0
20
64420.0
40
350
0
LINE
8
BLACK
10
68750.0
20
66170.0
11
68750.0
21
62670.0
0
LINE
8
BLACK
10
68750.0
20
62670.0
11
72250.0
21
62670.0
0
LINE
8
BLACK
10
72250.0
20
62670.0
11
72250.0
21
66170.0
0
LINE
8
BLACK
10
72250.0
20
66170.0
11
68750.0
21
66170.0
0
LINE
8
BLACK
10
63650.0
20
56520.0
11
63650.0
21
55820.0
0
LINE
8
BLACK
10
63650.0
20
55820.0
11
64350.0
21
55820.0
0
LINE
8
BLACK
10
64350.0
20
55820.0
11
64350.0
21
56520.0
0
LINE
8
BLACK
10
64350.0
20
56520.0
11
63650.0
21
56520.0
0
CIRCLE
8
BLACK
10
64000.0
20
58170.0
40
350
0
CIRCLE
8
BLACK
10
64000.0
20
57170.0
40
350
0
LINE
8
BLACK
10
68750.0
20
58920.0
11
68750.0
21
55420.0
0
LINE
8
BLACK
10
68750.0
20
55420.0
11
72250.0
21
55420.0
0
LINE
8
BLACK
10
72250.0
20
55420.0
11
72250.0
21
58920.0
0
LINE
8
BLACK
10
72250.0
20
58920.0
11
68750.0
21
58920.0
0
CIRCLE
8
BLACK
10
57500.0
20
66920.0
40
300
0
CIRCLE
8
BLACK
10
57500.0
20
61920.0
40
300
0
CIRCLE
8
BLACK
10
57500.0
20
54920.0
40
300
0
CIRCLE
8
BLACK
10
57500.0
20
59920.0
40
300
0
CIRCLE
8
BLACK
10
66000.0
20
61420.0
40
300
0
CIRCLE
8
BLACK
10
61000.0
20
61420.0
40
300
0
CIRCLE
8
BLACK
10
66000.0
20
60170.0
40
300
0
CIRCLE
8
BLACK
10
61000.0
20
60170.0
40
300
0
LINE
8
BLACK
10
56300.0
20
62220.0
11
55700.0
21
62220.0
0
LINE
8
BLACK
10
55700.0
20
62220.0
11
55700.0
21
61620.0
0
LINE
8
BLACK
10
55700.0
20
61620.0
11
56300.0
21
61620.0
0
LINE
8
BLACK
10
56300.0
20
61620.0
11
56300.0
21
62220.0
0
CIRCLE
8
BLACK
10
56000.0
20
60920.0
40
300
0
CIRCLE
8
BLACK
10
56000.0
20
59920.0
40
300
0
LINE
8
BLACK
10
67200.0
20
59870.0
11
67800.0
21
59870.0
0
LINE
8
BLACK
10
67800.0
20
59870.0
11
67800.0
21
60470.0
0
LINE
8
BLACK
10
67800.0
20
60470.0
11
67200.0
21
60470.0
0
LINE
8
BLACK
10
67200.0
20
60470.0
11
67200.0
21
59870.0
0
CIRCLE
8
BLACK
10
67500.0
20
61170.0
40
300
0
LINE
8
BLACK
10
59775.0
20
58695.0
11
59225.0
21
58695.0
0
LINE
8
BLACK
10
59225.0
20
58695.0
11
59225.0
21
58145.0
0
LINE
8
BLACK
10
59225.0
20
58145.0
11
59775.0
21
58145.0
0
LINE
8
BLACK
10
59775.0
20
58145.0
11
59775.0
21
58695.0
0
CIRCLE
8
BLACK
10
59500.0
20
57420.0
40
275
0
CIRCLE
8
BLACK
10
59500.0
20
56420.0
40
275
0
CIRCLE
8
BLACK
10
62500.0
20
56420.0
40
275
0
CIRCLE
8
BLACK
10
62500.0
20
57420.0
40
275
0
CIRCLE
8
BLACK
10
62500.0
20
58420.0
40
275
0
LINE
8
BLACK
10
59775.0
20
65195.0
11
59225.0
21
65195.0
0
LINE
8
BLACK
10
59225.0
20
65195.0
11
59225.0
21
64645.0
0
LINE
8
BLACK
10
59225.0
20
64645.0
11
59775.0
21
64645.0
0
LINE
8
BLACK
10
59775.0
20
64645.0
11
59775.0
21
65195.0
0
CIRCLE
8
BLACK
10
59500.0
20
63920.0
40
275
0
CIRCLE
8
BLACK
10
59500.0
20
62920.0
40
275
0
CIRCLE
8
BLACK
10
62500.0
20
62920.0
40
275
0
CIRCLE
8
BLACK
10
62500.0
20
63920.0
40
275
0
CIRCLE
8
BLACK
10
62500.0
20
64920.0
40
275
0
ENDSEC
0
EOF
